<svg width="213" height="213" viewBox="0 0 213 213" fill="none" xmlns="http://www.w3.org/2000/svg">
<g style="mix-blend-mode:hard-light" filter="url(#filter0_f)">
<path d="M95.2286 55.213L61.8404 88.6012C51.9874 98.4542 51.9874 114.429 61.8405 124.282L95.2286 157.67C101.421 163.863 111.462 163.863 117.655 157.67C123.847 151.478 123.847 141.437 117.655 135.244L91.816 109.406C90.1789 107.769 90.1789 105.115 91.816 103.477L117.655 77.6389C123.847 71.4461 123.847 61.4057 117.655 55.213C111.462 49.0202 101.421 49.0202 95.2286 55.213Z" stroke="#FF00E5" stroke-width="16"/>
</g>
<g style="mix-blend-mode:hard-light" filter="url(#filter1_ii)">
<path d="M95.2286 55.213L61.8404 88.6012C51.9874 98.4542 51.9874 114.429 61.8405 124.282L95.2286 157.67C101.421 163.863 111.462 163.863 117.655 157.67C123.847 151.478 123.847 141.437 117.655 135.244L91.816 109.406C90.1789 107.769 90.1789 105.115 91.816 103.477L117.655 77.6389C123.847 71.4461 123.847 61.4057 117.655 55.213C111.462 49.0202 101.421 49.0202 95.2286 55.213Z" stroke="#FF00E5" stroke-opacity="0.24" stroke-width="16" stroke-linecap="round" stroke-linejoin="round"/>
</g>
<g style="mix-blend-mode:hard-light" filter="url(#filter2_ii)">
<path d="M95.2286 55.213L61.8404 88.6012C51.9874 98.4542 51.9874 114.429 61.8405 124.282L95.2286 157.67C101.421 163.863 111.462 163.863 117.655 157.67C123.847 151.478 123.847 141.437 117.655 135.244L91.816 109.406C90.1789 107.769 90.1789 105.115 91.816 103.477L117.655 77.6389C123.847 71.4461 123.847 61.4057 117.655 55.213C111.462 49.0202 101.421 49.0202 95.2286 55.213Z" stroke="#FF00E5" stroke-opacity="0.24" stroke-width="16" stroke-linecap="round" stroke-linejoin="round"/>
</g>
<g filter="url(#filter3_f)">
<path d="M95.2286 55.213L61.8404 88.6012C51.9874 98.4542 51.9874 114.429 61.8405 124.282L95.2286 157.67C101.421 163.863 111.462 163.863 117.655 157.67C123.847 151.478 123.847 141.437 117.655 135.244L91.816 109.406C90.1789 107.769 90.1789 105.115 91.816 103.477L117.655 77.6389C123.847 71.4461 123.847 61.4057 117.655 55.213C111.462 49.0202 101.421 49.0202 95.2286 55.213Z" stroke="white" stroke-width="4"/>
</g>
<g filter="url(#filter4_f)">
<path d="M95.2286 55.213L61.8404 88.6012C51.9874 98.4542 51.9874 114.429 61.8405 124.282L95.2286 157.67C101.421 163.863 111.462 163.863 117.655 157.67C123.847 151.478 123.847 141.437 117.655 135.244L91.816 109.406C90.1789 107.769 90.1789 105.115 91.816 103.477L117.655 77.6389C123.847 71.4461 123.847 61.4057 117.655 55.213C111.462 49.0202 101.421 49.0202 95.2286 55.213Z" stroke="white" stroke-width="4"/>
</g>
<defs>
<filter id="filter0_f" x="0.686279" y="0.686295" width="211.511" height="211.511" filterUnits="userSpaceOnUse" color-interpolation-filters="sRGB">
<feFlood flood-opacity="0" result="BackgroundImageFix"/>
<feBlend mode="normal" in="SourceGraphic" in2="BackgroundImageFix" result="shape"/>
<feGaussianBlur stdDeviation="16" result="effect1_foregroundBlur"/>
</filter>
<filter id="filter1_ii" x="30.6863" y="30.6863" width="151.511" height="151.511" filterUnits="userSpaceOnUse" color-interpolation-filters="sRGB">
<feFlood flood-opacity="0" result="BackgroundImageFix"/>
<feBlend mode="normal" in="SourceGraphic" in2="BackgroundImageFix" result="shape"/>
<feColorMatrix in="SourceAlpha" type="matrix" values="0 0 0 0 0 0 0 0 0 0 0 0 0 0 0 0 0 0 127 0" result="hardAlpha"/>
<feOffset dx="2" dy="2"/>
<feGaussianBlur stdDeviation="1"/>
<feComposite in2="hardAlpha" operator="arithmetic" k2="-1" k3="1"/>
<feColorMatrix type="matrix" values="0 0 0 0 1 0 0 0 0 1 0 0 0 0 1 0 0 0 0.54 0"/>
<feBlend mode="normal" in2="shape" result="effect1_innerShadow"/>
<feColorMatrix in="SourceAlpha" type="matrix" values="0 0 0 0 0 0 0 0 0 0 0 0 0 0 0 0 0 0 127 0" result="hardAlpha"/>
<feOffset dx="-2" dy="-2"/>
<feGaussianBlur stdDeviation="1"/>
<feComposite in2="hardAlpha" operator="arithmetic" k2="-1" k3="1"/>
<feColorMatrix type="matrix" values="0 0 0 0 1 0 0 0 0 1 0 0 0 0 1 0 0 0 0.54 0"/>
<feBlend mode="normal" in2="effect1_innerShadow" result="effect2_innerShadow"/>
</filter>
<filter id="filter2_ii" x="30.6863" y="30.6863" width="151.511" height="151.511" filterUnits="userSpaceOnUse" color-interpolation-filters="sRGB">
<feFlood flood-opacity="0" result="BackgroundImageFix"/>
<feBlend mode="normal" in="SourceGraphic" in2="BackgroundImageFix" result="shape"/>
<feColorMatrix in="SourceAlpha" type="matrix" values="0 0 0 0 0 0 0 0 0 0 0 0 0 0 0 0 0 0 127 0" result="hardAlpha"/>
<feOffset dx="2" dy="2"/>
<feGaussianBlur stdDeviation="1"/>
<feComposite in2="hardAlpha" operator="arithmetic" k2="-1" k3="1"/>
<feColorMatrix type="matrix" values="0 0 0 0 1 0 0 0 0 1 0 0 0 0 1 0 0 0 0.54 0"/>
<feBlend mode="normal" in2="shape" result="effect1_innerShadow"/>
<feColorMatrix in="SourceAlpha" type="matrix" values="0 0 0 0 0 0 0 0 0 0 0 0 0 0 0 0 0 0 127 0" result="hardAlpha"/>
<feOffset dx="-2" dy="-2"/>
<feGaussianBlur stdDeviation="1"/>
<feComposite in2="hardAlpha" operator="arithmetic" k2="-1" k3="1"/>
<feColorMatrix type="matrix" values="0 0 0 0 1 0 0 0 0 1 0 0 0 0 1 0 0 0 0.54 0"/>
<feBlend mode="normal" in2="effect1_innerShadow" result="effect2_innerShadow"/>
</filter>
<filter id="filter3_f" x="39.1716" y="39.1716" width="134.54" height="134.54" filterUnits="userSpaceOnUse" color-interpolation-filters="sRGB">
<feFlood flood-opacity="0" result="BackgroundImageFix"/>
<feBlend mode="normal" in="SourceGraphic" in2="BackgroundImageFix" result="shape"/>
<feGaussianBlur stdDeviation="1" result="effect1_foregroundBlur"/>
</filter>
<filter id="filter4_f" x="39.1716" y="39.1716" width="134.54" height="134.54" filterUnits="userSpaceOnUse" color-interpolation-filters="sRGB">
<feFlood flood-opacity="0" result="BackgroundImageFix"/>
<feBlend mode="normal" in="SourceGraphic" in2="BackgroundImageFix" result="shape"/>
<feGaussianBlur stdDeviation="1" result="effect1_foregroundBlur"/>
</filter>
</defs>
</svg>
