<svg id="Слой_1" data-name="Слой 1" xmlns="http://www.w3.org/2000/svg" viewBox="0 0 83.85 127.75"><defs><style>.cls-1,.cls-2,.cls-3{fill:none;}.cls-1,.cls-2{stroke:#ff00e5;stroke-width:16px;}.cls-2{stroke-linecap:round;stroke-linejoin:round;stroke-opacity:0.24;}.cls-3{stroke:#fff;stroke-width:4px;}</style></defs><path class="cls-1" d="M95.23,55.21,61.84,88.6a25.23,25.23,0,0,0,0,35.68l33.39,33.39a15.86,15.86,0,0,0,22.42-22.43L91.82,109.41a4.19,4.19,0,0,1,0-5.93l25.83-25.84A15.86,15.86,0,0,0,95.23,55.21Z" transform="translate(-46.45 -42.57)"/><path class="cls-2" d="M95.23,55.21,61.84,88.6a25.23,25.23,0,0,0,0,35.68l33.39,33.39a15.86,15.86,0,0,0,22.42-22.43L91.82,109.41a4.19,4.19,0,0,1,0-5.93l25.83-25.84A15.86,15.86,0,0,0,95.23,55.21Z" transform="translate(-46.45 -42.57)"/><path class="cls-2" d="M95.23,55.21,61.84,88.6a25.23,25.23,0,0,0,0,35.68l33.39,33.39a15.86,15.86,0,0,0,22.42-22.43L91.82,109.41a4.19,4.19,0,0,1,0-5.93l25.83-25.84A15.86,15.86,0,0,0,95.23,55.21Z" transform="translate(-46.45 -42.57)"/><path class="cls-3" d="M95.23,55.21,61.84,88.6a25.23,25.23,0,0,0,0,35.68l33.39,33.39a15.86,15.86,0,0,0,22.42-22.43L91.82,109.41a4.19,4.19,0,0,1,0-5.93l25.83-25.84A15.86,15.86,0,0,0,95.23,55.21Z" transform="translate(-46.45 -42.57)"/><path class="cls-3" d="M95.23,55.21,61.84,88.6a25.23,25.23,0,0,0,0,35.68l33.39,33.39a15.86,15.86,0,0,0,22.42-22.43L91.82,109.41a4.19,4.19,0,0,1,0-5.93l25.83-25.84A15.86,15.86,0,0,0,95.23,55.21Z" transform="translate(-46.45 -42.57)"/></svg>