<svg width="639" height="281" viewBox="0 0 639 281" fill="none" xmlns="http://www.w3.org/2000/svg">
<g style="mix-blend-mode:hard-light" filter="url(#filter0_f)">
<path d="M41.1725 114.391C37.3234 85.2024 59.4019 59.023 88.8217 57.8915L546.757 40.2786C577.72 39.0877 602.3 66.0582 598.249 96.7785L587.493 178.343C584.317 202.427 564.291 220.744 540.02 221.763L103.69 240.082C77.8233 241.168 55.4061 222.329 52.0214 196.663L41.1725 114.391Z" stroke="#00FFFF" stroke-width="16"/>
</g>
<g style="mix-blend-mode:hard-light" filter="url(#filter1_ii)">
<path d="M41.1725 114.391C37.3234 85.2024 59.4019 59.023 88.8217 57.8915L546.757 40.2786C577.72 39.0877 602.3 66.0582 598.249 96.7785L587.493 178.343C584.317 202.427 564.291 220.744 540.02 221.763L103.69 240.082C77.8233 241.168 55.4061 222.329 52.0214 196.663L41.1725 114.391Z" stroke="#00FFFF" stroke-opacity="0.24" stroke-width="16" stroke-linecap="round" stroke-linejoin="round"/>
</g>
<g style="mix-blend-mode:hard-light" filter="url(#filter2_ii)">
<path d="M41.1725 114.391C37.3234 85.2024 59.4019 59.023 88.8217 57.8915L546.757 40.2786C577.72 39.0877 602.3 66.0582 598.249 96.7785L587.493 178.343C584.317 202.427 564.291 220.744 540.02 221.763L103.69 240.082C77.8233 241.168 55.4061 222.329 52.0214 196.663L41.1725 114.391Z" stroke="#00FFFF" stroke-opacity="0.24" stroke-width="16" stroke-linecap="round" stroke-linejoin="round"/>
</g>
<g filter="url(#filter3_f)">
<path d="M41.1725 114.391C37.3234 85.2024 59.4019 59.023 88.8217 57.8915L546.757 40.2786C577.72 39.0877 602.3 66.0582 598.249 96.7785L587.493 178.343C584.317 202.427 564.291 220.744 540.02 221.763L103.69 240.082C77.8233 241.168 55.4061 222.329 52.0214 196.663L41.1725 114.391Z" stroke="white" stroke-width="4" stroke-linejoin="round"/>
</g>
<g filter="url(#filter4_f)">
<path d="M41.1725 114.391C37.3234 85.2024 59.4019 59.023 88.8217 57.8915L546.757 40.2786C577.72 39.0877 602.3 66.0582 598.249 96.7785L587.493 178.343C584.317 202.427 564.291 220.744 540.02 221.763L103.69 240.082C77.8233 241.168 55.4061 222.329 52.0214 196.663L41.1725 114.391Z" stroke="white" stroke-width="4" stroke-linecap="round" stroke-linejoin="round"/>
</g>
<defs>
<filter id="filter0_f" x="0.734833" y="0.240234" width="637.954" height="279.887" filterUnits="userSpaceOnUse" color-interpolation-filters="sRGB">
<feFlood flood-opacity="0" result="BackgroundImageFix"/>
<feBlend mode="normal" in="SourceGraphic" in2="BackgroundImageFix" result="shape"/>
<feGaussianBlur stdDeviation="16" result="effect1_foregroundBlur"/>
</filter>
<filter id="filter1_ii" x="30.7348" y="30.2402" width="577.954" height="219.887" filterUnits="userSpaceOnUse" color-interpolation-filters="sRGB">
<feFlood flood-opacity="0" result="BackgroundImageFix"/>
<feBlend mode="normal" in="SourceGraphic" in2="BackgroundImageFix" result="shape"/>
<feColorMatrix in="SourceAlpha" type="matrix" values="0 0 0 0 0 0 0 0 0 0 0 0 0 0 0 0 0 0 127 0" result="hardAlpha"/>
<feOffset dx="2" dy="2"/>
<feGaussianBlur stdDeviation="1"/>
<feComposite in2="hardAlpha" operator="arithmetic" k2="-1" k3="1"/>
<feColorMatrix type="matrix" values="0 0 0 0 1 0 0 0 0 1 0 0 0 0 1 0 0 0 0.54 0"/>
<feBlend mode="normal" in2="shape" result="effect1_innerShadow"/>
<feColorMatrix in="SourceAlpha" type="matrix" values="0 0 0 0 0 0 0 0 0 0 0 0 0 0 0 0 0 0 127 0" result="hardAlpha"/>
<feOffset dx="-2" dy="-2"/>
<feGaussianBlur stdDeviation="1"/>
<feComposite in2="hardAlpha" operator="arithmetic" k2="-1" k3="1"/>
<feColorMatrix type="matrix" values="0 0 0 0 1 0 0 0 0 1 0 0 0 0 1 0 0 0 0.54 0"/>
<feBlend mode="normal" in2="effect1_innerShadow" result="effect2_innerShadow"/>
</filter>
<filter id="filter2_ii" x="30.7348" y="30.2402" width="577.954" height="219.887" filterUnits="userSpaceOnUse" color-interpolation-filters="sRGB">
<feFlood flood-opacity="0" result="BackgroundImageFix"/>
<feBlend mode="normal" in="SourceGraphic" in2="BackgroundImageFix" result="shape"/>
<feColorMatrix in="SourceAlpha" type="matrix" values="0 0 0 0 0 0 0 0 0 0 0 0 0 0 0 0 0 0 127 0" result="hardAlpha"/>
<feOffset dx="2" dy="2"/>
<feGaussianBlur stdDeviation="1"/>
<feComposite in2="hardAlpha" operator="arithmetic" k2="-1" k3="1"/>
<feColorMatrix type="matrix" values="0 0 0 0 1 0 0 0 0 1 0 0 0 0 1 0 0 0 0.54 0"/>
<feBlend mode="normal" in2="shape" result="effect1_innerShadow"/>
<feColorMatrix in="SourceAlpha" type="matrix" values="0 0 0 0 0 0 0 0 0 0 0 0 0 0 0 0 0 0 127 0" result="hardAlpha"/>
<feOffset dx="-2" dy="-2"/>
<feGaussianBlur stdDeviation="1"/>
<feComposite in2="hardAlpha" operator="arithmetic" k2="-1" k3="1"/>
<feColorMatrix type="matrix" values="0 0 0 0 1 0 0 0 0 1 0 0 0 0 1 0 0 0 0.54 0"/>
<feBlend mode="normal" in2="effect1_innerShadow" result="effect2_innerShadow"/>
</filter>
<filter id="filter3_f" x="36.7357" y="36.2402" width="565.952" height="207.886" filterUnits="userSpaceOnUse" color-interpolation-filters="sRGB">
<feFlood flood-opacity="0" result="BackgroundImageFix"/>
<feBlend mode="normal" in="SourceGraphic" in2="BackgroundImageFix" result="shape"/>
<feGaussianBlur stdDeviation="1" result="effect1_foregroundBlur"/>
</filter>
<filter id="filter4_f" x="36.7357" y="36.2402" width="565.952" height="207.886" filterUnits="userSpaceOnUse" color-interpolation-filters="sRGB">
<feFlood flood-opacity="0" result="BackgroundImageFix"/>
<feBlend mode="normal" in="SourceGraphic" in2="BackgroundImageFix" result="shape"/>
<feGaussianBlur stdDeviation="1" result="effect1_foregroundBlur"/>
</filter>
</defs>
</svg>
