<svg width="453" height="160" viewBox="0 0 453 160" fill="none" xmlns="http://www.w3.org/2000/svg">
<g style="mix-blend-mode:hard-light" filter="url(#filter0_f)">
<path d="M362 40L408 80L362 120" stroke="#00FFFF" stroke-width="16"/>
</g>
<g style="mix-blend-mode:hard-light" filter="url(#filter1_f)">
<path d="M408 80H141" stroke="#00FFFF" stroke-width="16"/>
</g>
<g style="mix-blend-mode:hard-light" filter="url(#filter2_f)">
<path d="M54 40L101 80L54 120H101L141 80L101 40H54Z" stroke="#00FFFF" stroke-width="16"/>
</g>
<g style="mix-blend-mode:hard-light" filter="url(#filter3_ii)">
<path fill-rule="evenodd" clip-rule="evenodd" d="M355.963 34.7507C358.862 31.4166 363.915 31.0641 367.249 33.9633L413.206 73.9252C413.214 73.9322 413.222 73.9392 413.23 73.9463L413.249 73.9633C413.468 74.1532 413.675 74.3538 413.869 74.5639C415.232 76.0349 416 77.974 416 80.0001C416 82.4306 414.916 84.6078 413.206 86.0751L367.249 126.037C363.915 128.936 358.862 128.584 355.963 125.25C353.064 121.915 353.416 116.862 356.751 113.963L386.608 88.0001H144.314L106.657 125.657C105.157 127.157 103.122 128 101 128H54C50.647 128 47.6498 125.909 46.492 122.763C45.3343 119.616 46.2616 116.081 48.815 113.908L88.6566 80.0001L48.815 46.0924C46.2616 43.9193 45.3343 40.3845 46.492 37.2377C47.6498 34.091 50.647 32.0001 54 32.0001H101C103.122 32.0001 105.157 32.843 106.657 34.3433L144.314 72.0001H386.608L356.751 46.037C353.416 43.1378 353.064 38.0847 355.963 34.7507ZM106.185 73.9078L75.7434 48.0001H97.6863L129.686 80.0001L97.6863 112H75.7434L106.185 86.0924C107.971 84.5725 109 82.3453 109 80.0001C109 77.6549 107.971 75.4278 106.185 73.9078Z" fill="#00FFFF" fill-opacity="0.24"/>
</g>
<g style="mix-blend-mode:hard-light" filter="url(#filter4_ii)">
<path fill-rule="evenodd" clip-rule="evenodd" d="M54 32C50.647 32 47.6498 34.0909 46.492 37.2376C45.3343 40.3843 46.2616 43.9192 48.815 46.0923L88.6566 80L48.815 113.908C46.2616 116.081 45.3343 119.616 46.492 122.762C47.6498 125.909 50.647 128 54 128H101C103.122 128 105.157 127.157 106.657 125.657L144.314 88H386.608L356.751 113.963C353.416 116.862 353.064 121.916 355.963 125.25C358.862 128.584 363.915 128.936 367.249 126.037L413.219 86.0634L413.249 86.037C413.611 85.7225 413.941 85.3788 414.236 85.0109C415.369 83.6013 416 81.8364 416 80.0001C416 77.5649 414.912 75.3838 413.196 73.9165L367.249 33.9633C363.915 31.0641 358.862 31.4166 355.963 34.7507C353.064 38.0848 353.416 43.1378 356.751 46.037L386.608 72H144.314L106.657 34.3431C105.157 32.8429 103.122 32 101 32H54ZM106.185 73.9077L75.7434 48H97.6863L129.686 80L97.6863 112H75.7434L106.185 86.0923C107.971 84.5723 109 82.3452 109 80C109 77.6548 107.971 75.4277 106.185 73.9077Z" fill="#00FFFF" fill-opacity="0.24"/>
</g>
<g filter="url(#filter5_f)">
<path d="M362 40L408 80L362 120" stroke="white" stroke-width="4" stroke-linejoin="round"/>
</g>
<g filter="url(#filter6_f)">
<path d="M408 80H141" stroke="white" stroke-width="4" stroke-linejoin="round"/>
</g>
<g filter="url(#filter7_f)">
<path d="M54 40L101 80L54 120H101L141 80L101 40H54Z" stroke="white" stroke-width="4" stroke-linejoin="round"/>
</g>
<g filter="url(#filter8_f)">
<path d="M362 40L408 80L362 120" stroke="white" stroke-width="4" stroke-linejoin="round"/>
</g>
<g filter="url(#filter9_f)">
<path d="M408 80H141" stroke="white" stroke-width="4" stroke-linejoin="round"/>
</g>
<g filter="url(#filter10_f)">
<path d="M54 40L101 80L54 120H101L141 80L101 40H54Z" stroke="white" stroke-width="4" stroke-linejoin="round"/>
</g>
<defs>
<filter id="filter0_f" x="324.751" y="1.96289" width="127.441" height="156.074" filterUnits="userSpaceOnUse" color-interpolation-filters="sRGB">
<feFlood flood-opacity="0" result="BackgroundImageFix"/>
<feBlend mode="normal" in="SourceGraphic" in2="BackgroundImageFix" result="shape"/>
<feGaussianBlur stdDeviation="16" result="effect1_foregroundBlur"/>
</filter>
<filter id="filter1_f" x="109" y="40" width="331" height="80" filterUnits="userSpaceOnUse" color-interpolation-filters="sRGB">
<feFlood flood-opacity="0" result="BackgroundImageFix"/>
<feBlend mode="normal" in="SourceGraphic" in2="BackgroundImageFix" result="shape"/>
<feGaussianBlur stdDeviation="16" result="effect1_foregroundBlur"/>
</filter>
<filter id="filter2_f" x="0.256546" y="0" width="184.057" height="160" filterUnits="userSpaceOnUse" color-interpolation-filters="sRGB">
<feFlood flood-opacity="0" result="BackgroundImageFix"/>
<feBlend mode="normal" in="SourceGraphic" in2="BackgroundImageFix" result="shape"/>
<feGaussianBlur stdDeviation="16" result="effect1_foregroundBlur"/>
</filter>
<filter id="filter3_ii" x="43.9996" y="30" width="374" height="100" filterUnits="userSpaceOnUse" color-interpolation-filters="sRGB">
<feFlood flood-opacity="0" result="BackgroundImageFix"/>
<feBlend mode="normal" in="SourceGraphic" in2="BackgroundImageFix" result="shape"/>
<feColorMatrix in="SourceAlpha" type="matrix" values="0 0 0 0 0 0 0 0 0 0 0 0 0 0 0 0 0 0 127 0" result="hardAlpha"/>
<feOffset dx="2" dy="2"/>
<feGaussianBlur stdDeviation="1"/>
<feComposite in2="hardAlpha" operator="arithmetic" k2="-1" k3="1"/>
<feColorMatrix type="matrix" values="0 0 0 0 1 0 0 0 0 1 0 0 0 0 1 0 0 0 0.54 0"/>
<feBlend mode="normal" in2="shape" result="effect1_innerShadow"/>
<feColorMatrix in="SourceAlpha" type="matrix" values="0 0 0 0 0 0 0 0 0 0 0 0 0 0 0 0 0 0 127 0" result="hardAlpha"/>
<feOffset dx="-2" dy="-2"/>
<feGaussianBlur stdDeviation="1"/>
<feComposite in2="hardAlpha" operator="arithmetic" k2="-1" k3="1"/>
<feColorMatrix type="matrix" values="0 0 0 0 1 0 0 0 0 1 0 0 0 0 1 0 0 0 0.54 0"/>
<feBlend mode="normal" in2="effect1_innerShadow" result="effect2_innerShadow"/>
</filter>
<filter id="filter4_ii" x="43.9996" y="30" width="374" height="100" filterUnits="userSpaceOnUse" color-interpolation-filters="sRGB">
<feFlood flood-opacity="0" result="BackgroundImageFix"/>
<feBlend mode="normal" in="SourceGraphic" in2="BackgroundImageFix" result="shape"/>
<feColorMatrix in="SourceAlpha" type="matrix" values="0 0 0 0 0 0 0 0 0 0 0 0 0 0 0 0 0 0 127 0" result="hardAlpha"/>
<feOffset dx="2" dy="2"/>
<feGaussianBlur stdDeviation="1"/>
<feComposite in2="hardAlpha" operator="arithmetic" k2="-1" k3="1"/>
<feColorMatrix type="matrix" values="0 0 0 0 1 0 0 0 0 1 0 0 0 0 1 0 0 0 0.54 0"/>
<feBlend mode="normal" in2="shape" result="effect1_innerShadow"/>
<feColorMatrix in="SourceAlpha" type="matrix" values="0 0 0 0 0 0 0 0 0 0 0 0 0 0 0 0 0 0 127 0" result="hardAlpha"/>
<feOffset dx="-2" dy="-2"/>
<feGaussianBlur stdDeviation="1"/>
<feComposite in2="hardAlpha" operator="arithmetic" k2="-1" k3="1"/>
<feColorMatrix type="matrix" values="0 0 0 0 1 0 0 0 0 1 0 0 0 0 1 0 0 0 0.54 0"/>
<feBlend mode="normal" in2="effect1_innerShadow" result="effect2_innerShadow"/>
</filter>
<filter id="filter5_f" x="358.688" y="36.4912" width="53.3123" height="87.0176" filterUnits="userSpaceOnUse" color-interpolation-filters="sRGB">
<feFlood flood-opacity="0" result="BackgroundImageFix"/>
<feBlend mode="normal" in="SourceGraphic" in2="BackgroundImageFix" result="shape"/>
<feGaussianBlur stdDeviation="1" result="effect1_foregroundBlur"/>
</filter>
<filter id="filter6_f" x="139" y="76" width="271" height="8" filterUnits="userSpaceOnUse" color-interpolation-filters="sRGB">
<feFlood flood-opacity="0" result="BackgroundImageFix"/>
<feBlend mode="normal" in="SourceGraphic" in2="BackgroundImageFix" result="shape"/>
<feGaussianBlur stdDeviation="1" result="effect1_foregroundBlur"/>
</filter>
<filter id="filter7_f" x="49.9999" y="36" width="95.0001" height="88" filterUnits="userSpaceOnUse" color-interpolation-filters="sRGB">
<feFlood flood-opacity="0" result="BackgroundImageFix"/>
<feBlend mode="normal" in="SourceGraphic" in2="BackgroundImageFix" result="shape"/>
<feGaussianBlur stdDeviation="1" result="effect1_foregroundBlur"/>
</filter>
<filter id="filter8_f" x="358.688" y="36.4912" width="53.3123" height="87.0176" filterUnits="userSpaceOnUse" color-interpolation-filters="sRGB">
<feFlood flood-opacity="0" result="BackgroundImageFix"/>
<feBlend mode="normal" in="SourceGraphic" in2="BackgroundImageFix" result="shape"/>
<feGaussianBlur stdDeviation="1" result="effect1_foregroundBlur"/>
</filter>
<filter id="filter9_f" x="139" y="76" width="271" height="8" filterUnits="userSpaceOnUse" color-interpolation-filters="sRGB">
<feFlood flood-opacity="0" result="BackgroundImageFix"/>
<feBlend mode="normal" in="SourceGraphic" in2="BackgroundImageFix" result="shape"/>
<feGaussianBlur stdDeviation="1" result="effect1_foregroundBlur"/>
</filter>
<filter id="filter10_f" x="49.9999" y="36" width="95.0001" height="88" filterUnits="userSpaceOnUse" color-interpolation-filters="sRGB">
<feFlood flood-opacity="0" result="BackgroundImageFix"/>
<feBlend mode="normal" in="SourceGraphic" in2="BackgroundImageFix" result="shape"/>
<feGaussianBlur stdDeviation="1" result="effect1_foregroundBlur"/>
</filter>
</defs>
</svg>
