<svg width="210" height="201" viewBox="0 0 210 201" fill="none" xmlns="http://www.w3.org/2000/svg">
<g style="mix-blend-mode:hard-light" filter="url(#filter0_f)">
<path d="M87.285 41.7975C66.4796 37.3752 45.9614 50.3077 41.5881 70.8828C39.4626 80.8823 41.5677 90.8157 46.677 98.8617L84.7764 157.894C84.7925 157.919 84.8088 157.944 84.8253 157.969C86.8045 160.945 90.8335 161.772 93.8243 159.817L151.542 122.087C160.027 116.858 166.446 108.352 168.669 97.8947C173.042 77.3195 159.558 57.1596 138.753 52.7374C133.189 51.5546 127.788 52.6813 123.148 54.5575C118.501 56.437 114.19 59.2386 110.536 62.0154C110.375 62.1381 110.146 62.2059 109.857 62.1445C109.568 62.083 109.386 61.9279 109.289 61.7504C107.08 57.7273 104.281 53.4143 100.801 49.8075C97.3252 46.2064 92.8491 42.9802 87.285 41.7975Z" stroke="#FF00E5" stroke-width="16"/>
</g>
<g style="mix-blend-mode:hard-light" filter="url(#filter1_ii)">
<path d="M87.285 41.7975C66.4796 37.3752 45.9614 50.3077 41.5881 70.8828C39.4626 80.8823 41.5677 90.8157 46.677 98.8617L84.7764 157.894C84.7925 157.919 84.8088 157.944 84.8253 157.969C86.8045 160.945 90.8335 161.772 93.8243 159.817L151.542 122.087C160.027 116.858 166.446 108.352 168.669 97.8947C173.042 77.3195 159.558 57.1596 138.753 52.7374C133.189 51.5546 127.788 52.6813 123.148 54.5575C118.501 56.437 114.19 59.2386 110.536 62.0154C110.375 62.1381 110.146 62.2059 109.857 62.1445C109.568 62.083 109.386 61.9279 109.289 61.7504C107.08 57.7273 104.281 53.4143 100.801 49.8075C97.3252 46.2064 92.8491 42.9802 87.285 41.7975Z" stroke="#FF00E5" stroke-opacity="0.24" stroke-width="16" stroke-linecap="round" stroke-linejoin="round"/>
</g>
<g style="mix-blend-mode:hard-light" filter="url(#filter2_ii)">
<path d="M87.285 41.7975C66.4796 37.3752 45.9614 50.3077 41.5881 70.8828C39.4626 80.8823 41.5677 90.8157 46.677 98.8617L84.7764 157.894C84.7925 157.919 84.8088 157.944 84.8253 157.969C86.8045 160.945 90.8335 161.772 93.8243 159.817L151.542 122.087C160.027 116.858 166.446 108.352 168.669 97.8947C173.042 77.3195 159.558 57.1596 138.753 52.7374C133.189 51.5546 127.788 52.6813 123.148 54.5575C118.501 56.437 114.19 59.2386 110.536 62.0154C110.375 62.1381 110.146 62.2059 109.857 62.1445C109.568 62.083 109.386 61.9279 109.289 61.7504C107.08 57.7273 104.281 53.4143 100.801 49.8075C97.3252 46.2064 92.8491 42.9802 87.285 41.7975Z" stroke="#FF00E5" stroke-opacity="0.24" stroke-width="16" stroke-linecap="round" stroke-linejoin="round"/>
</g>
<g filter="url(#filter3_f)">
<path d="M87.285 41.7975C66.4796 37.3752 45.9614 50.3077 41.5881 70.8828C39.4626 80.8823 41.5677 90.8157 46.677 98.8617L84.7764 157.894C84.7925 157.919 84.8088 157.944 84.8253 157.969C86.8045 160.945 90.8335 161.772 93.8243 159.817L151.542 122.087C160.027 116.858 166.446 108.352 168.669 97.8947C173.042 77.3195 159.558 57.1596 138.753 52.7374C133.189 51.5546 127.788 52.6813 123.148 54.5575C118.501 56.437 114.19 59.2386 110.536 62.0154C110.375 62.1381 110.146 62.2059 109.857 62.1445C109.568 62.083 109.386 61.9279 109.289 61.7504C107.08 57.7273 104.281 53.4143 100.801 49.8075C97.3252 46.2064 92.8491 42.9802 87.285 41.7975Z" stroke="white" stroke-width="4"/>
</g>
<g filter="url(#filter4_f)">
<path d="M87.285 41.7975C66.4796 37.3752 45.9614 50.3077 41.5881 70.8828C39.4626 80.8823 41.5677 90.8157 46.677 98.8617L84.7764 157.894C84.7925 157.919 84.8088 157.944 84.8253 157.969C86.8045 160.945 90.8335 161.772 93.8243 159.817L151.542 122.087C160.027 116.858 166.446 108.352 168.669 97.8947C173.042 77.3195 159.558 57.1596 138.753 52.7374C133.189 51.5546 127.788 52.6813 123.148 54.5575C118.501 56.437 114.19 59.2386 110.536 62.0154C110.375 62.1381 110.146 62.2059 109.857 62.1445C109.568 62.083 109.386 61.9279 109.289 61.7504C107.08 57.7273 104.281 53.4143 100.801 49.8075C97.3252 46.2064 92.8491 42.9802 87.285 41.7975Z" stroke="white" stroke-width="4"/>
</g>
<defs>
<filter id="filter0_f" x="0.766083" y="0.932434" width="208.731" height="199.945" filterUnits="userSpaceOnUse" color-interpolation-filters="sRGB">
<feFlood flood-opacity="0" result="BackgroundImageFix"/>
<feBlend mode="normal" in="SourceGraphic" in2="BackgroundImageFix" result="shape"/>
<feGaussianBlur stdDeviation="16" result="effect1_foregroundBlur"/>
</filter>
<filter id="filter1_ii" x="30.7661" y="30.9324" width="148.731" height="139.945" filterUnits="userSpaceOnUse" color-interpolation-filters="sRGB">
<feFlood flood-opacity="0" result="BackgroundImageFix"/>
<feBlend mode="normal" in="SourceGraphic" in2="BackgroundImageFix" result="shape"/>
<feColorMatrix in="SourceAlpha" type="matrix" values="0 0 0 0 0 0 0 0 0 0 0 0 0 0 0 0 0 0 127 0" result="hardAlpha"/>
<feOffset dx="2" dy="2"/>
<feGaussianBlur stdDeviation="1"/>
<feComposite in2="hardAlpha" operator="arithmetic" k2="-1" k3="1"/>
<feColorMatrix type="matrix" values="0 0 0 0 1 0 0 0 0 1 0 0 0 0 1 0 0 0 0.54 0"/>
<feBlend mode="normal" in2="shape" result="effect1_innerShadow"/>
<feColorMatrix in="SourceAlpha" type="matrix" values="0 0 0 0 0 0 0 0 0 0 0 0 0 0 0 0 0 0 127 0" result="hardAlpha"/>
<feOffset dx="-2" dy="-2"/>
<feGaussianBlur stdDeviation="1"/>
<feComposite in2="hardAlpha" operator="arithmetic" k2="-1" k3="1"/>
<feColorMatrix type="matrix" values="0 0 0 0 1 0 0 0 0 1 0 0 0 0 1 0 0 0 0.54 0"/>
<feBlend mode="normal" in2="effect1_innerShadow" result="effect2_innerShadow"/>
</filter>
<filter id="filter2_ii" x="30.7661" y="30.9324" width="148.731" height="139.945" filterUnits="userSpaceOnUse" color-interpolation-filters="sRGB">
<feFlood flood-opacity="0" result="BackgroundImageFix"/>
<feBlend mode="normal" in="SourceGraphic" in2="BackgroundImageFix" result="shape"/>
<feColorMatrix in="SourceAlpha" type="matrix" values="0 0 0 0 0 0 0 0 0 0 0 0 0 0 0 0 0 0 127 0" result="hardAlpha"/>
<feOffset dx="2" dy="2"/>
<feGaussianBlur stdDeviation="1"/>
<feComposite in2="hardAlpha" operator="arithmetic" k2="-1" k3="1"/>
<feColorMatrix type="matrix" values="0 0 0 0 1 0 0 0 0 1 0 0 0 0 1 0 0 0 0.54 0"/>
<feBlend mode="normal" in2="shape" result="effect1_innerShadow"/>
<feColorMatrix in="SourceAlpha" type="matrix" values="0 0 0 0 0 0 0 0 0 0 0 0 0 0 0 0 0 0 127 0" result="hardAlpha"/>
<feOffset dx="-2" dy="-2"/>
<feGaussianBlur stdDeviation="1"/>
<feComposite in2="hardAlpha" operator="arithmetic" k2="-1" k3="1"/>
<feColorMatrix type="matrix" values="0 0 0 0 1 0 0 0 0 1 0 0 0 0 1 0 0 0 0.54 0"/>
<feBlend mode="normal" in2="effect1_innerShadow" result="effect2_innerShadow"/>
</filter>
<filter id="filter3_f" x="36.7665" y="36.9315" width="136.727" height="127.945" filterUnits="userSpaceOnUse" color-interpolation-filters="sRGB">
<feFlood flood-opacity="0" result="BackgroundImageFix"/>
<feBlend mode="normal" in="SourceGraphic" in2="BackgroundImageFix" result="shape"/>
<feGaussianBlur stdDeviation="1" result="effect1_foregroundBlur"/>
</filter>
<filter id="filter4_f" x="36.7665" y="36.9315" width="136.727" height="127.945" filterUnits="userSpaceOnUse" color-interpolation-filters="sRGB">
<feFlood flood-opacity="0" result="BackgroundImageFix"/>
<feBlend mode="normal" in="SourceGraphic" in2="BackgroundImageFix" result="shape"/>
<feGaussianBlur stdDeviation="1" result="effect1_foregroundBlur"/>
</filter>
</defs>
</svg>
