<svg width="639" height="278" viewBox="0 0 639 278" fill="none" xmlns="http://www.w3.org/2000/svg">
<g style="mix-blend-mode:hard-light" filter="url(#filter0_f)">
<path d="M40.5143 116.521C36.486 87.2926 58.5101 60.9498 87.9895 59.7363L545.944 40.8839C580.256 39.4715 605.746 72.2734 595.903 105.173L578.432 163.568C572.572 183.156 555.377 197.202 535.014 199.036L105.312 237.723C78.7217 240.117 54.9416 221.199 51.2965 194.751L40.5143 116.521Z" stroke="#00FFFF" stroke-width="16"/>
</g>
<g style="mix-blend-mode:hard-light" filter="url(#filter1_ii)">
<path d="M40.5143 116.521C36.486 87.2926 58.5101 60.9498 87.9895 59.7363L545.944 40.8839C580.256 39.4715 605.746 72.2734 595.903 105.173L578.432 163.568C572.572 183.156 555.377 197.202 535.014 199.036L105.312 237.723C78.7217 240.117 54.9416 221.199 51.2965 194.751L40.5143 116.521Z" stroke="#00FFFF" stroke-opacity="0.24" stroke-width="16" stroke-linecap="round" stroke-linejoin="round"/>
</g>
<g style="mix-blend-mode:hard-light" filter="url(#filter2_ii)">
<path d="M40.5143 116.521C36.486 87.2926 58.5101 60.9498 87.9895 59.7363L545.944 40.8839C580.256 39.4715 605.746 72.2734 595.903 105.173L578.432 163.568C572.572 183.156 555.377 197.202 535.014 199.036L105.312 237.723C78.7217 240.117 54.9416 221.199 51.2965 194.751L40.5143 116.521Z" stroke="#00FFFF" stroke-opacity="0.24" stroke-width="16" stroke-linecap="round" stroke-linejoin="round"/>
</g>
<g filter="url(#filter3_f)">
<path d="M40.5143 116.521C36.486 87.2926 58.5101 60.9498 87.9895 59.7363L545.944 40.8839C580.256 39.4715 605.746 72.2734 595.903 105.173L578.432 163.568C572.572 183.156 555.377 197.202 535.014 199.036L105.312 237.723C78.7217 240.117 54.9416 221.199 51.2965 194.751L40.5143 116.521Z" stroke="white" stroke-width="4" stroke-linejoin="round"/>
</g>
<g filter="url(#filter4_f)">
<path d="M40.5143 116.521C36.486 87.2926 58.5101 60.9498 87.9895 59.7363L545.944 40.8839C580.256 39.4715 605.746 72.2734 595.903 105.173L578.432 163.568C572.572 183.156 555.377 197.202 535.014 199.036L105.312 237.723C78.7217 240.117 54.9416 221.199 51.2965 194.751L40.5143 116.521Z" stroke="white" stroke-width="4" stroke-linecap="round" stroke-linejoin="round"/>
</g>
<defs>
<filter id="filter0_f" x="0.0368652" y="0.839844" width="638.006" height="277.088" filterUnits="userSpaceOnUse" color-interpolation-filters="sRGB">
<feFlood flood-opacity="0" result="BackgroundImageFix"/>
<feBlend mode="normal" in="SourceGraphic" in2="BackgroundImageFix" result="shape"/>
<feGaussianBlur stdDeviation="16" result="effect1_foregroundBlur"/>
</filter>
<filter id="filter1_ii" x="30.0369" y="30.8398" width="578.006" height="217.088" filterUnits="userSpaceOnUse" color-interpolation-filters="sRGB">
<feFlood flood-opacity="0" result="BackgroundImageFix"/>
<feBlend mode="normal" in="SourceGraphic" in2="BackgroundImageFix" result="shape"/>
<feColorMatrix in="SourceAlpha" type="matrix" values="0 0 0 0 0 0 0 0 0 0 0 0 0 0 0 0 0 0 127 0" result="hardAlpha"/>
<feOffset dx="2" dy="2"/>
<feGaussianBlur stdDeviation="1"/>
<feComposite in2="hardAlpha" operator="arithmetic" k2="-1" k3="1"/>
<feColorMatrix type="matrix" values="0 0 0 0 1 0 0 0 0 1 0 0 0 0 1 0 0 0 0.54 0"/>
<feBlend mode="normal" in2="shape" result="effect1_innerShadow"/>
<feColorMatrix in="SourceAlpha" type="matrix" values="0 0 0 0 0 0 0 0 0 0 0 0 0 0 0 0 0 0 127 0" result="hardAlpha"/>
<feOffset dx="-2" dy="-2"/>
<feGaussianBlur stdDeviation="1"/>
<feComposite in2="hardAlpha" operator="arithmetic" k2="-1" k3="1"/>
<feColorMatrix type="matrix" values="0 0 0 0 1 0 0 0 0 1 0 0 0 0 1 0 0 0 0.54 0"/>
<feBlend mode="normal" in2="effect1_innerShadow" result="effect2_innerShadow"/>
</filter>
<filter id="filter2_ii" x="30.0369" y="30.8398" width="578.006" height="217.088" filterUnits="userSpaceOnUse" color-interpolation-filters="sRGB">
<feFlood flood-opacity="0" result="BackgroundImageFix"/>
<feBlend mode="normal" in="SourceGraphic" in2="BackgroundImageFix" result="shape"/>
<feColorMatrix in="SourceAlpha" type="matrix" values="0 0 0 0 0 0 0 0 0 0 0 0 0 0 0 0 0 0 127 0" result="hardAlpha"/>
<feOffset dx="2" dy="2"/>
<feGaussianBlur stdDeviation="1"/>
<feComposite in2="hardAlpha" operator="arithmetic" k2="-1" k3="1"/>
<feColorMatrix type="matrix" values="0 0 0 0 1 0 0 0 0 1 0 0 0 0 1 0 0 0 0.54 0"/>
<feBlend mode="normal" in2="shape" result="effect1_innerShadow"/>
<feColorMatrix in="SourceAlpha" type="matrix" values="0 0 0 0 0 0 0 0 0 0 0 0 0 0 0 0 0 0 127 0" result="hardAlpha"/>
<feOffset dx="-2" dy="-2"/>
<feGaussianBlur stdDeviation="1"/>
<feComposite in2="hardAlpha" operator="arithmetic" k2="-1" k3="1"/>
<feColorMatrix type="matrix" values="0 0 0 0 1 0 0 0 0 1 0 0 0 0 1 0 0 0 0.54 0"/>
<feBlend mode="normal" in2="effect1_innerShadow" result="effect2_innerShadow"/>
</filter>
<filter id="filter3_f" x="36.0378" y="36.8398" width="566.001" height="205.087" filterUnits="userSpaceOnUse" color-interpolation-filters="sRGB">
<feFlood flood-opacity="0" result="BackgroundImageFix"/>
<feBlend mode="normal" in="SourceGraphic" in2="BackgroundImageFix" result="shape"/>
<feGaussianBlur stdDeviation="1" result="effect1_foregroundBlur"/>
</filter>
<filter id="filter4_f" x="36.0378" y="36.8398" width="566.001" height="205.087" filterUnits="userSpaceOnUse" color-interpolation-filters="sRGB">
<feFlood flood-opacity="0" result="BackgroundImageFix"/>
<feBlend mode="normal" in="SourceGraphic" in2="BackgroundImageFix" result="shape"/>
<feGaussianBlur stdDeviation="1" result="effect1_foregroundBlur"/>
</filter>
</defs>
</svg>
