<svg width="206" height="206" viewBox="0 0 206 206" fill="none" xmlns="http://www.w3.org/2000/svg">
<g style="mix-blend-mode:hard-light" filter="url(#filter0_f)">
<path fill-rule="evenodd" clip-rule="evenodd" d="M103 123.296C114.209 123.296 123.296 114.209 123.296 103C123.296 91.7911 114.209 82.7044 103 82.7044C91.7911 82.7044 82.7044 91.7911 82.7044 103C82.7044 114.209 91.7911 123.296 103 123.296ZM69.5136 45C69.5136 45 95.921 57.5234 113.895 62.3394C131.869 67.1555 161 69.5136 161 69.5136C161 69.5136 148.477 95.921 143.661 113.895C138.844 131.869 136.486 161 136.486 161C136.486 161 110.079 148.477 92.1047 143.661C74.1312 138.844 45 136.486 45 136.486C45 136.486 57.5234 110.079 62.3394 92.1047C67.1555 74.1312 69.5136 45 69.5136 45Z" stroke="#FF00E5" stroke-width="16"/>
</g>
<g style="mix-blend-mode:hard-light" filter="url(#filter1_ii)">
<path fill-rule="evenodd" clip-rule="evenodd" d="M103 123.296C114.209 123.296 123.296 114.209 123.296 103C123.296 91.7911 114.209 82.7044 103 82.7044C91.7911 82.7044 82.7044 91.7911 82.7044 103C82.7044 114.209 91.7911 123.296 103 123.296ZM69.5136 45C69.5136 45 95.921 57.5234 113.895 62.3394C131.869 67.1555 161 69.5136 161 69.5136C161 69.5136 148.477 95.921 143.661 113.895C138.844 131.869 136.486 161 136.486 161C136.486 161 110.079 148.477 92.1047 143.661C74.1312 138.844 45 136.486 45 136.486C45 136.486 57.5234 110.079 62.3394 92.1047C67.1555 74.1312 69.5136 45 69.5136 45Z" stroke="#FF00E5" stroke-opacity="0.24" stroke-width="16" stroke-linecap="round" stroke-linejoin="round"/>
</g>
<g style="mix-blend-mode:hard-light" filter="url(#filter2_ii)">
<path fill-rule="evenodd" clip-rule="evenodd" d="M103 123.296C114.209 123.296 123.296 114.209 123.296 103C123.296 91.7911 114.209 82.7044 103 82.7044C91.7911 82.7044 82.7044 91.7911 82.7044 103C82.7044 114.209 91.7911 123.296 103 123.296ZM69.5136 45C69.5136 45 95.921 57.5234 113.895 62.3394C131.869 67.1555 161 69.5136 161 69.5136C161 69.5136 148.477 95.921 143.661 113.895C138.844 131.869 136.486 161 136.486 161C136.486 161 110.079 148.477 92.1047 143.661C74.1312 138.844 45 136.486 45 136.486C45 136.486 57.5234 110.079 62.3394 92.1047C67.1555 74.1312 69.5136 45 69.5136 45Z" stroke="#FF00E5" stroke-opacity="0.24" stroke-width="16" stroke-linecap="round" stroke-linejoin="round"/>
</g>
<g filter="url(#filter3_f)">
<path fill-rule="evenodd" clip-rule="evenodd" d="M103 123.296C114.209 123.296 123.296 114.209 123.296 103C123.296 91.7911 114.209 82.7044 103 82.7044C91.7911 82.7044 82.7044 91.7911 82.7044 103C82.7044 114.209 91.7911 123.296 103 123.296ZM69.5136 45C69.5136 45 95.921 57.5234 113.895 62.3394C131.869 67.1555 161 69.5136 161 69.5136C161 69.5136 148.477 95.921 143.661 113.895C138.844 131.869 136.486 161 136.486 161C136.486 161 110.079 148.477 92.1047 143.661C74.1312 138.844 45 136.486 45 136.486C45 136.486 57.5234 110.079 62.3394 92.1047C67.1555 74.1312 69.5136 45 69.5136 45Z" stroke="white" stroke-width="4" stroke-linejoin="round"/>
</g>
<g filter="url(#filter4_f)">
<path fill-rule="evenodd" clip-rule="evenodd" d="M103 123.296C114.209 123.296 123.296 114.209 123.296 103C123.296 91.7911 114.209 82.7044 103 82.7044C91.7911 82.7044 82.7044 91.7911 82.7044 103C82.7044 114.209 91.7911 123.296 103 123.296ZM69.5136 45C69.5136 45 95.921 57.5234 113.895 62.3394C131.869 67.1555 161 69.5136 161 69.5136C161 69.5136 148.477 95.921 143.661 113.895C138.844 131.869 136.486 161 136.486 161C136.486 161 110.079 148.477 92.1047 143.661C74.1312 138.844 45 136.486 45 136.486C45 136.486 57.5234 110.079 62.3394 92.1047C67.1555 74.1312 69.5136 45 69.5136 45Z" stroke="white" stroke-width="4" stroke-linecap="round" stroke-linejoin="round"/>
</g>
<defs>
<filter id="filter0_f" x="0.80777" y="0.807617" width="204.384" height="204.385" filterUnits="userSpaceOnUse" color-interpolation-filters="sRGB">
<feFlood flood-opacity="0" result="BackgroundImageFix"/>
<feBlend mode="normal" in="SourceGraphic" in2="BackgroundImageFix" result="shape"/>
<feGaussianBlur stdDeviation="16" result="effect1_foregroundBlur"/>
</filter>
<filter id="filter1_ii" x="35" y="35" width="136" height="136" filterUnits="userSpaceOnUse" color-interpolation-filters="sRGB">
<feFlood flood-opacity="0" result="BackgroundImageFix"/>
<feBlend mode="normal" in="SourceGraphic" in2="BackgroundImageFix" result="shape"/>
<feColorMatrix in="SourceAlpha" type="matrix" values="0 0 0 0 0 0 0 0 0 0 0 0 0 0 0 0 0 0 127 0" result="hardAlpha"/>
<feOffset dx="2" dy="2"/>
<feGaussianBlur stdDeviation="1"/>
<feComposite in2="hardAlpha" operator="arithmetic" k2="-1" k3="1"/>
<feColorMatrix type="matrix" values="0 0 0 0 1 0 0 0 0 1 0 0 0 0 1 0 0 0 0.54 0"/>
<feBlend mode="normal" in2="shape" result="effect1_innerShadow"/>
<feColorMatrix in="SourceAlpha" type="matrix" values="0 0 0 0 0 0 0 0 0 0 0 0 0 0 0 0 0 0 127 0" result="hardAlpha"/>
<feOffset dx="-2" dy="-2"/>
<feGaussianBlur stdDeviation="1"/>
<feComposite in2="hardAlpha" operator="arithmetic" k2="-1" k3="1"/>
<feColorMatrix type="matrix" values="0 0 0 0 1 0 0 0 0 1 0 0 0 0 1 0 0 0 0.54 0"/>
<feBlend mode="normal" in2="effect1_innerShadow" result="effect2_innerShadow"/>
</filter>
<filter id="filter2_ii" x="35" y="35" width="136" height="136" filterUnits="userSpaceOnUse" color-interpolation-filters="sRGB">
<feFlood flood-opacity="0" result="BackgroundImageFix"/>
<feBlend mode="normal" in="SourceGraphic" in2="BackgroundImageFix" result="shape"/>
<feColorMatrix in="SourceAlpha" type="matrix" values="0 0 0 0 0 0 0 0 0 0 0 0 0 0 0 0 0 0 127 0" result="hardAlpha"/>
<feOffset dx="2" dy="2"/>
<feGaussianBlur stdDeviation="1"/>
<feComposite in2="hardAlpha" operator="arithmetic" k2="-1" k3="1"/>
<feColorMatrix type="matrix" values="0 0 0 0 1 0 0 0 0 1 0 0 0 0 1 0 0 0 0.54 0"/>
<feBlend mode="normal" in2="shape" result="effect1_innerShadow"/>
<feColorMatrix in="SourceAlpha" type="matrix" values="0 0 0 0 0 0 0 0 0 0 0 0 0 0 0 0 0 0 127 0" result="hardAlpha"/>
<feOffset dx="-2" dy="-2"/>
<feGaussianBlur stdDeviation="1"/>
<feComposite in2="hardAlpha" operator="arithmetic" k2="-1" k3="1"/>
<feColorMatrix type="matrix" values="0 0 0 0 1 0 0 0 0 1 0 0 0 0 1 0 0 0 0.54 0"/>
<feBlend mode="normal" in2="effect1_innerShadow" result="effect2_innerShadow"/>
</filter>
<filter id="filter3_f" x="41" y="41" width="124" height="124" filterUnits="userSpaceOnUse" color-interpolation-filters="sRGB">
<feFlood flood-opacity="0" result="BackgroundImageFix"/>
<feBlend mode="normal" in="SourceGraphic" in2="BackgroundImageFix" result="shape"/>
<feGaussianBlur stdDeviation="1" result="effect1_foregroundBlur"/>
</filter>
<filter id="filter4_f" x="41" y="41" width="124" height="124" filterUnits="userSpaceOnUse" color-interpolation-filters="sRGB">
<feFlood flood-opacity="0" result="BackgroundImageFix"/>
<feBlend mode="normal" in="SourceGraphic" in2="BackgroundImageFix" result="shape"/>
<feGaussianBlur stdDeviation="1" result="effect1_foregroundBlur"/>
</filter>
</defs>
</svg>
