<svg width="146" height="196" viewBox="0 0 146 196" fill="none" xmlns="http://www.w3.org/2000/svg">
<g style="mix-blend-mode:hard-light" filter="url(#filter0_f)">
<path d="M44 64.6164C44 51.0211 55.0211 40 68.6164 40H77.3836C90.9789 40 102 51.0211 102 64.6164V64.6164C102 67.516 101.488 70.3928 100.487 73.1141L96.7806 83.1902C89.8214 102.11 89.8215 122.89 96.7806 141.81L102 156H44L49.2194 141.81C56.1786 122.89 56.1785 102.11 49.2194 83.1902L45.5132 73.1141C44.5123 70.3928 44 67.516 44 64.6164V64.6164Z" stroke="#FF00E5" stroke-width="16"/>
</g>
<g style="mix-blend-mode:hard-light" filter="url(#filter1_ii)">
<path d="M44 64.6164C44 51.0211 55.0211 40 68.6164 40H77.3836C90.9789 40 102 51.0211 102 64.6164V64.6164C102 67.516 101.488 70.3928 100.487 73.1141L96.7806 83.1902C89.8214 102.11 89.8215 122.89 96.7806 141.81L102 156H44L49.2194 141.81C56.1786 122.89 56.1785 102.11 49.2194 83.1902L45.5132 73.1141C44.5123 70.3928 44 67.516 44 64.6164V64.6164Z" stroke="#FF00E5" stroke-opacity="0.24" stroke-width="16" stroke-linecap="round" stroke-linejoin="round"/>
</g>
<g style="mix-blend-mode:hard-light" filter="url(#filter2_ii)">
<path d="M44 64.6164C44 51.0211 55.0211 40 68.6164 40H77.3836C90.9789 40 102 51.0211 102 64.6164V64.6164C102 67.516 101.488 70.3928 100.487 73.1141L96.7806 83.1902C89.8214 102.11 89.8215 122.89 96.7806 141.81L102 156H44L49.2194 141.81C56.1786 122.89 56.1785 102.11 49.2194 83.1902L45.5132 73.1141C44.5123 70.3928 44 67.516 44 64.6164V64.6164Z" stroke="#FF00E5" stroke-opacity="0.24" stroke-width="16" stroke-linecap="round" stroke-linejoin="round"/>
</g>
<g filter="url(#filter3_f)">
<path d="M44 64.6164C44 51.0211 55.0211 40 68.6164 40H77.3836C90.9789 40 102 51.0211 102 64.6164V64.6164C102 67.516 101.488 70.3928 100.487 73.1141L96.7806 83.1902C89.8214 102.11 89.8215 122.89 96.7806 141.81L102 156H44L49.2194 141.81C56.1786 122.89 56.1785 102.11 49.2194 83.1902L45.5132 73.1141C44.5123 70.3928 44 67.516 44 64.6164V64.6164Z" stroke="white" stroke-width="4" stroke-linejoin="round"/>
</g>
<g filter="url(#filter4_f)">
<path d="M44 64.6164C44 51.0211 55.0211 40 68.6164 40H77.3836C90.9789 40 102 51.0211 102 64.6164V64.6164C102 67.516 101.488 70.3928 100.487 73.1141L96.7806 83.1902C89.8214 102.11 89.8215 122.89 96.7806 141.81L102 156H44L49.2194 141.81C56.1786 122.89 56.1785 102.11 49.2194 83.1902L45.5132 73.1141C44.5123 70.3928 44 67.516 44 64.6164V64.6164Z" stroke="white" stroke-width="4" stroke-linecap="round" stroke-linejoin="round"/>
</g>
<defs>
<filter id="filter0_f" x="0.533447" y="0" width="144.933" height="196" filterUnits="userSpaceOnUse" color-interpolation-filters="sRGB">
<feFlood flood-opacity="0" result="BackgroundImageFix"/>
<feBlend mode="normal" in="SourceGraphic" in2="BackgroundImageFix" result="shape"/>
<feGaussianBlur stdDeviation="16" result="effect1_foregroundBlur"/>
</filter>
<filter id="filter1_ii" x="34" y="30" width="78" height="136" filterUnits="userSpaceOnUse" color-interpolation-filters="sRGB">
<feFlood flood-opacity="0" result="BackgroundImageFix"/>
<feBlend mode="normal" in="SourceGraphic" in2="BackgroundImageFix" result="shape"/>
<feColorMatrix in="SourceAlpha" type="matrix" values="0 0 0 0 0 0 0 0 0 0 0 0 0 0 0 0 0 0 127 0" result="hardAlpha"/>
<feOffset dx="2" dy="2"/>
<feGaussianBlur stdDeviation="1"/>
<feComposite in2="hardAlpha" operator="arithmetic" k2="-1" k3="1"/>
<feColorMatrix type="matrix" values="0 0 0 0 1 0 0 0 0 1 0 0 0 0 1 0 0 0 0.54 0"/>
<feBlend mode="normal" in2="shape" result="effect1_innerShadow"/>
<feColorMatrix in="SourceAlpha" type="matrix" values="0 0 0 0 0 0 0 0 0 0 0 0 0 0 0 0 0 0 127 0" result="hardAlpha"/>
<feOffset dx="-2" dy="-2"/>
<feGaussianBlur stdDeviation="1"/>
<feComposite in2="hardAlpha" operator="arithmetic" k2="-1" k3="1"/>
<feColorMatrix type="matrix" values="0 0 0 0 1 0 0 0 0 1 0 0 0 0 1 0 0 0 0.54 0"/>
<feBlend mode="normal" in2="effect1_innerShadow" result="effect2_innerShadow"/>
</filter>
<filter id="filter2_ii" x="34" y="30" width="78" height="136" filterUnits="userSpaceOnUse" color-interpolation-filters="sRGB">
<feFlood flood-opacity="0" result="BackgroundImageFix"/>
<feBlend mode="normal" in="SourceGraphic" in2="BackgroundImageFix" result="shape"/>
<feColorMatrix in="SourceAlpha" type="matrix" values="0 0 0 0 0 0 0 0 0 0 0 0 0 0 0 0 0 0 127 0" result="hardAlpha"/>
<feOffset dx="2" dy="2"/>
<feGaussianBlur stdDeviation="1"/>
<feComposite in2="hardAlpha" operator="arithmetic" k2="-1" k3="1"/>
<feColorMatrix type="matrix" values="0 0 0 0 1 0 0 0 0 1 0 0 0 0 1 0 0 0 0.54 0"/>
<feBlend mode="normal" in2="shape" result="effect1_innerShadow"/>
<feColorMatrix in="SourceAlpha" type="matrix" values="0 0 0 0 0 0 0 0 0 0 0 0 0 0 0 0 0 0 127 0" result="hardAlpha"/>
<feOffset dx="-2" dy="-2"/>
<feGaussianBlur stdDeviation="1"/>
<feComposite in2="hardAlpha" operator="arithmetic" k2="-1" k3="1"/>
<feColorMatrix type="matrix" values="0 0 0 0 1 0 0 0 0 1 0 0 0 0 1 0 0 0 0.54 0"/>
<feBlend mode="normal" in2="effect1_innerShadow" result="effect2_innerShadow"/>
</filter>
<filter id="filter3_f" x="40" y="36" width="66" height="124" filterUnits="userSpaceOnUse" color-interpolation-filters="sRGB">
<feFlood flood-opacity="0" result="BackgroundImageFix"/>
<feBlend mode="normal" in="SourceGraphic" in2="BackgroundImageFix" result="shape"/>
<feGaussianBlur stdDeviation="1" result="effect1_foregroundBlur"/>
</filter>
<filter id="filter4_f" x="40" y="36" width="66" height="124" filterUnits="userSpaceOnUse" color-interpolation-filters="sRGB">
<feFlood flood-opacity="0" result="BackgroundImageFix"/>
<feBlend mode="normal" in="SourceGraphic" in2="BackgroundImageFix" result="shape"/>
<feGaussianBlur stdDeviation="1" result="effect1_foregroundBlur"/>
</filter>
</defs>
</svg>
