<svg width="230" height="196" viewBox="0 0 230 196" fill="none" xmlns="http://www.w3.org/2000/svg">
<g style="mix-blend-mode:hard-light" filter="url(#filter0_f)">
<path d="M58.9882 114.571C48.2857 110.429 40 102.447 40 89.7143C40 62.2578 73.3868 40 114.571 40C155.756 40 189.143 62.2578 189.143 89.7143C189.143 102.447 180.857 110.429 170.154 114.571M139.429 131.143H147.714H139.429ZM114.571 156C128.3 156 139.429 144.871 139.429 131.143C139.429 117.415 128.3 106.286 114.571 106.286C100.843 106.286 89.7143 117.415 89.7143 131.143C89.7143 144.871 100.843 156 114.571 156ZM81.4286 131.143H89.7143H81.4286Z" stroke="#FF00E5" stroke-width="16"/>
</g>
<g style="mix-blend-mode:hard-light" filter="url(#filter1_ii)">
<path d="M58.9882 114.571C48.2857 110.429 40 102.447 40 89.7143C40 62.2578 73.3868 40 114.571 40C155.756 40 189.143 62.2578 189.143 89.7143C189.143 102.447 180.857 110.429 170.154 114.571M139.429 131.143H147.714H139.429ZM114.571 156C128.3 156 139.429 144.871 139.429 131.143C139.429 117.415 128.3 106.286 114.571 106.286C100.843 106.286 89.7143 117.415 89.7143 131.143C89.7143 144.871 100.843 156 114.571 156ZM81.4286 131.143H89.7143H81.4286Z" stroke="#FF00E5" stroke-opacity="0.24" stroke-width="16" stroke-linecap="round" stroke-linejoin="round"/>
</g>
<g style="mix-blend-mode:hard-light" filter="url(#filter2_ii)">
<path d="M58.9882 114.571C48.2857 110.429 40 102.447 40 89.7143C40 62.2578 73.3868 40 114.571 40C155.756 40 189.143 62.2578 189.143 89.7143C189.143 102.447 180.857 110.429 170.154 114.571M139.429 131.143H147.714H139.429ZM114.571 156C128.3 156 139.429 144.871 139.429 131.143C139.429 117.415 128.3 106.286 114.571 106.286C100.843 106.286 89.7143 117.415 89.7143 131.143C89.7143 144.871 100.843 156 114.571 156ZM81.4286 131.143H89.7143H81.4286Z" stroke="#FF00E5" stroke-opacity="0.24" stroke-width="16" stroke-linecap="round" stroke-linejoin="round"/>
</g>
<g filter="url(#filter3_f)">
<path d="M58.9882 114.571C48.2857 110.429 40 102.447 40 89.7143C40 62.2578 73.3868 40 114.571 40C155.756 40 189.143 62.2578 189.143 89.7143C189.143 102.447 180.857 110.429 170.154 114.571M139.429 131.143H147.714H139.429ZM114.571 156C128.3 156 139.429 144.871 139.429 131.143C139.429 117.415 128.3 106.286 114.571 106.286C100.843 106.286 89.7143 117.415 89.7143 131.143C89.7143 144.871 100.843 156 114.571 156ZM81.4286 131.143H89.7143H81.4286Z" stroke="white" stroke-width="4" stroke-linejoin="round"/>
</g>
<g filter="url(#filter4_f)">
<path d="M58.9882 114.571C48.2857 110.429 40 102.447 40 89.7143C40 62.2578 73.3868 40 114.571 40C155.756 40 189.143 62.2578 189.143 89.7143C189.143 102.447 180.857 110.429 170.154 114.571M139.429 131.143H147.714H139.429ZM114.571 156C128.3 156 139.429 144.871 139.429 131.143C139.429 117.415 128.3 106.286 114.571 106.286C100.843 106.286 89.7143 117.415 89.7143 131.143C89.7143 144.871 100.843 156 114.571 156ZM81.4286 131.143H89.7143H81.4286Z" stroke="white" stroke-width="4" stroke-linecap="round" stroke-linejoin="round"/>
</g>
<defs>
<filter id="filter0_f" x="0" y="0" width="229.143" height="196" filterUnits="userSpaceOnUse" color-interpolation-filters="sRGB">
<feFlood flood-opacity="0" result="BackgroundImageFix"/>
<feBlend mode="normal" in="SourceGraphic" in2="BackgroundImageFix" result="shape"/>
<feGaussianBlur stdDeviation="16" result="effect1_foregroundBlur"/>
</filter>
<filter id="filter1_ii" x="30" y="30" width="169.143" height="136" filterUnits="userSpaceOnUse" color-interpolation-filters="sRGB">
<feFlood flood-opacity="0" result="BackgroundImageFix"/>
<feBlend mode="normal" in="SourceGraphic" in2="BackgroundImageFix" result="shape"/>
<feColorMatrix in="SourceAlpha" type="matrix" values="0 0 0 0 0 0 0 0 0 0 0 0 0 0 0 0 0 0 127 0" result="hardAlpha"/>
<feOffset dx="2" dy="2"/>
<feGaussianBlur stdDeviation="1"/>
<feComposite in2="hardAlpha" operator="arithmetic" k2="-1" k3="1"/>
<feColorMatrix type="matrix" values="0 0 0 0 1 0 0 0 0 1 0 0 0 0 1 0 0 0 0.54 0"/>
<feBlend mode="normal" in2="shape" result="effect1_innerShadow"/>
<feColorMatrix in="SourceAlpha" type="matrix" values="0 0 0 0 0 0 0 0 0 0 0 0 0 0 0 0 0 0 127 0" result="hardAlpha"/>
<feOffset dx="-2" dy="-2"/>
<feGaussianBlur stdDeviation="1"/>
<feComposite in2="hardAlpha" operator="arithmetic" k2="-1" k3="1"/>
<feColorMatrix type="matrix" values="0 0 0 0 1 0 0 0 0 1 0 0 0 0 1 0 0 0 0.54 0"/>
<feBlend mode="normal" in2="effect1_innerShadow" result="effect2_innerShadow"/>
</filter>
<filter id="filter2_ii" x="30" y="30" width="169.143" height="136" filterUnits="userSpaceOnUse" color-interpolation-filters="sRGB">
<feFlood flood-opacity="0" result="BackgroundImageFix"/>
<feBlend mode="normal" in="SourceGraphic" in2="BackgroundImageFix" result="shape"/>
<feColorMatrix in="SourceAlpha" type="matrix" values="0 0 0 0 0 0 0 0 0 0 0 0 0 0 0 0 0 0 127 0" result="hardAlpha"/>
<feOffset dx="2" dy="2"/>
<feGaussianBlur stdDeviation="1"/>
<feComposite in2="hardAlpha" operator="arithmetic" k2="-1" k3="1"/>
<feColorMatrix type="matrix" values="0 0 0 0 1 0 0 0 0 1 0 0 0 0 1 0 0 0 0.54 0"/>
<feBlend mode="normal" in2="shape" result="effect1_innerShadow"/>
<feColorMatrix in="SourceAlpha" type="matrix" values="0 0 0 0 0 0 0 0 0 0 0 0 0 0 0 0 0 0 127 0" result="hardAlpha"/>
<feOffset dx="-2" dy="-2"/>
<feGaussianBlur stdDeviation="1"/>
<feComposite in2="hardAlpha" operator="arithmetic" k2="-1" k3="1"/>
<feColorMatrix type="matrix" values="0 0 0 0 1 0 0 0 0 1 0 0 0 0 1 0 0 0 0.54 0"/>
<feBlend mode="normal" in2="effect1_innerShadow" result="effect2_innerShadow"/>
</filter>
<filter id="filter3_f" x="36" y="36" width="157.143" height="124" filterUnits="userSpaceOnUse" color-interpolation-filters="sRGB">
<feFlood flood-opacity="0" result="BackgroundImageFix"/>
<feBlend mode="normal" in="SourceGraphic" in2="BackgroundImageFix" result="shape"/>
<feGaussianBlur stdDeviation="1" result="effect1_foregroundBlur"/>
</filter>
<filter id="filter4_f" x="36" y="36" width="157.143" height="124" filterUnits="userSpaceOnUse" color-interpolation-filters="sRGB">
<feFlood flood-opacity="0" result="BackgroundImageFix"/>
<feBlend mode="normal" in="SourceGraphic" in2="BackgroundImageFix" result="shape"/>
<feGaussianBlur stdDeviation="1" result="effect1_foregroundBlur"/>
</filter>
</defs>
</svg>
