<svg width="149" height="80" viewBox="0 0 149 80" fill="none" xmlns="http://www.w3.org/2000/svg">
<g clip-path="url(#clip0)">
<path d="M85.7319 27.4745L84.8533 29.7003C84.5597 30.4415 84.2668 31.1834 83.9747 31.9261L83.0937 34.1542C82.8001 34.8961 82.5064 35.6358 82.2151 36.38C81.9237 37.1242 81.637 37.8685 81.3365 38.6058C81.0359 39.3431 80.7239 40.0736 80.4578 40.8339C80.1917 41.5942 79.9669 42.3798 79.5769 43.0597C79.1532 43.7309 78.6494 44.348 78.0766 44.8973C77.5229 45.4746 76.9731 46.0527 76.4271 46.6315L74.7754 48.3634L73.1259 50.0954L71.4765 51.8296L69.8339 53.5524L68.1821 55.2866C67.6339 55.8654 67.0856 56.4466 66.5327 57.0185C65.9798 57.5905 65.4178 58.167 64.8832 58.7528C64.3487 59.3385 63.8348 59.9748 63.1994 60.4411C62.5639 60.9073 61.8046 61.2129 61.0796 61.5597C60.3547 61.9065 59.6642 62.2993 58.9645 62.6783C58.2648 63.0573 57.5559 63.4249 56.8493 63.797C56.1428 64.1691 55.4385 64.5412 54.7342 64.9133L52.6282 66.032L50.5131 67.1506L48.3979 68.2692L46.2828 69.3879C45.5785 69.76 44.8696 70.1298 44.1699 70.5042C43.4702 70.8786 42.7751 71.2576 42.0548 71.6228C41.3344 71.9881 40.582 72.3395 39.9396 72.7415C39.2973 73.1435 38.7582 73.596 38.5379 74.292C38.3177 74.988 38.4049 75.9251 38.5425 76.6877C38.6802 77.4503 38.8476 78.0315 39.4143 78.2956C39.9809 78.5598 40.9398 78.507 41.7932 78.5391C42.6466 78.5713 43.3991 78.6884 44.1722 78.7826C44.9453 78.8768 45.7528 78.9503 46.5512 79.0261C47.3495 79.1019 48.1387 79.1869 48.9301 79.2696C49.7216 79.3522 50.5154 79.4372 51.3091 79.513C52.1029 79.5888 52.8943 79.6577 53.6881 79.7565C54.477 79.8796 55.2719 79.9609 56.0694 80C56.8636 79.9985 57.6566 79.9363 58.4414 79.8139C59.2306 79.7106 60.0198 79.598 60.8089 79.4901L63.181 79.1639L65.5508 78.84L67.9183 78.5138C68.7098 78.4082 69.5012 78.3048 70.2881 78.19C71.075 78.0751 71.8573 77.9603 72.6579 77.8638C73.455 77.817 74.2473 77.7088 75.0277 77.5399C75.7684 77.3301 76.4616 76.9791 77.0695 76.5063C77.69 76.0053 78.2842 75.4724 78.8497 74.9098C79.437 74.3586 80.0357 73.8395 80.6322 73.302C81.2286 72.7645 81.8205 72.2384 82.4124 71.6941L84.1949 70.0862L85.9751 68.4897L87.7576 66.8818L89.5378 65.2854L91.318 63.6775L93.1005 62.0811L94.8808 60.4732C95.4749 59.9403 96.0668 59.4074 96.6633 58.8768C97.2597 58.3462 97.8608 57.8179 98.4435 57.2689C99.0262 56.7199 99.5905 56.1824 100.226 55.661C100.861 55.1396 101.566 54.6779 102.006 54.0646C102.447 53.4513 102.623 52.6864 102.761 51.9123C102.899 51.1382 103.002 50.3366 103.114 49.5441C103.227 48.7516 103.344 47.9638 103.465 47.1759C103.587 46.388 103.695 45.5979 103.816 44.8077C103.938 44.0175 104.046 43.2297 104.17 42.4395L104.521 40.0713L104.872 37.7031L105.223 35.3349C105.342 34.5447 105.46 33.7553 105.576 32.9667C105.693 32.1765 105.805 31.3886 105.927 30.5985C106.048 29.8083 106.17 29.0158 106.278 28.2303C106.386 27.4447 106.482 26.6591 106.631 25.8621C106.78 25.065 106.982 24.2542 106.982 23.4938C106.978 22.7438 106.775 22.0083 106.395 21.3622C105.96 20.7155 105.478 20.1014 104.954 19.5246C104.447 18.8953 103.991 18.2498 103.516 17.6112C103.041 16.9727 102.548 16.341 102.077 15.7001C101.607 15.0593 101.16 14.4092 100.641 13.7867C100.123 13.1642 99.524 12.5647 99.1982 11.8756C98.8725 11.1865 98.8266 10.3987 98.8037 9.60849C98.7807 8.81833 98.7853 8.01438 98.7853 7.21273C98.7853 6.41107 98.7853 5.60483 98.7669 4.81925C98.7486 4.03368 98.7188 3.2573 98.7486 2.42578C98.7784 1.59427 98.8771 0.703033 98.3999 0.358484C97.9227 0.013934 96.8743 0.199991 96.0095 0.280386C95.2141 0.357645 94.4122 0.331394 93.6236 0.202288C92.7748 0.07825 91.7677 -0.139965 91.2332 0.126487C90.6986 0.392939 90.6413 1.14865 90.6069 1.92504C90.5725 2.70142 90.561 3.51456 90.5426 4.31851C90.5243 5.12246 90.4991 5.92641 90.4784 6.71198C90.4578 7.49755 90.4417 8.31988 90.4142 9.10545C90.4097 9.89783 90.3283 10.6879 90.171 11.4645C89.9597 12.2352 89.6976 12.991 89.3864 13.727C89.102 14.4781 88.8565 15.2361 88.6018 15.9896C88.3472 16.743 88.0857 17.4918 87.8173 18.2498C87.5488 19.0078 87.269 19.7819 87.0396 20.5123C86.8102 21.2428 86.5968 21.9365 86.255 22.7749C85.9132 23.6133 85.4314 24.5987 85.4704 25.0351C85.5094 25.4716 86.0623 25.359 86.6174 25.2465C87.1726 25.1339 86.4569 26.3031 85.7388 27.4745" fill="#FFE850"/>
<path d="M2.8793 52.1207L0 31.2106H5.01441C5.29201 33.2669 5.52236 35.114 5.70545 36.7519C5.88264 38.3898 6.0421 39.9187 6.18386 41.3387C6.32561 42.7586 6.45554 44.1314 6.57367 45.457C6.6977 46.7827 6.81878 48.1761 6.93691 49.6373H7.53935C7.61613 49.0187 7.71949 48.2233 7.84943 47.2511C7.97937 46.2848 8.11521 45.2332 8.25696 44.096C8.39871 42.9589 8.54341 41.7747 8.69107 40.5433C8.84463 39.3178 9.00115 38.1247 9.16062 36.964C9.32009 35.8092 9.4707 34.731 9.61245 33.7294C9.7483 32.7337 9.86642 31.8941 9.96682 31.2106H16.6645C16.7826 31.8941 16.9126 32.7396 17.0543 33.7471C17.1961 34.7546 17.3408 35.8328 17.4884 36.9817C17.642 38.1306 17.7985 39.3237 17.958 40.5609C18.1175 41.7982 18.2681 42.9825 18.4098 44.1137C18.5457 45.2391 18.6756 46.2849 18.7996 47.2511C18.9178 48.2233 19.0182 49.0186 19.1009 49.6373H19.6944C19.8362 48.1761 19.9661 46.7827 20.0843 45.457C20.2083 44.1314 20.3353 42.7586 20.4652 41.3387C20.5951 39.9187 20.7546 38.3898 20.9436 36.7519C21.1326 35.114 21.3571 33.2669 21.6169 31.2106H26.6313L23.752 52.1207H15.9735L13.5992 33.7029H13.0322L10.6579 52.1207H2.8793ZM28.5538 41.701C28.5538 39.8038 28.8314 38.1748 29.3866 36.8137C29.9359 35.4586 30.7303 34.3362 31.7698 33.4466C32.8093 32.5569 34.085 31.9029 35.597 31.4846C37.109 31.0663 38.8248 30.8571 40.7443 30.8571C42.6698 30.8571 44.3915 31.0663 45.9094 31.4846C47.4332 31.9029 48.7148 32.5569 49.7543 33.4466C50.7998 34.3362 51.5971 35.4586 52.1464 36.8137C52.6957 38.1748 52.9703 39.8038 52.9703 41.701C52.9703 43.5982 52.6957 45.2302 52.1464 46.5971C51.5971 47.964 50.7998 49.0923 49.7543 49.982C48.7148 50.8716 47.4332 51.5256 45.9094 51.9439C44.3915 52.3623 42.6698 52.5714 40.7443 52.5714C38.8248 52.5714 37.109 52.3623 35.597 51.9439C34.085 51.5256 32.8093 50.8716 31.7698 49.982C30.7303 49.0923 29.9359 47.964 29.3866 46.5971C28.8314 45.2302 28.5538 43.5982 28.5538 41.701ZM33.9935 41.701C33.9935 42.6791 34.0968 43.5717 34.3036 44.3788C34.5162 45.186 34.8824 45.8754 35.4021 46.4469C35.9219 47.0184 36.6129 47.4573 37.4752 47.7637C38.3375 48.076 39.4272 48.2321 40.7443 48.2321C42.0673 48.2321 43.1659 48.076 44.04 47.7637C44.9083 47.4573 45.6022 47.0184 46.122 46.4469C46.6417 45.8754 47.0079 45.186 47.2206 44.3788C47.4273 43.5717 47.5306 42.679 47.5306 41.701C47.5306 40.6994 47.4273 39.8009 47.2206 39.0055C47.0079 38.2042 46.6417 37.5178 46.122 36.9463C45.6022 36.3807 44.9083 35.9418 44.04 35.6295C43.1659 35.3231 42.0673 35.1699 40.7443 35.1699C39.4272 35.1699 38.3375 35.3231 37.4752 35.6295C36.6129 35.9418 35.9219 36.3807 35.4021 36.9463C34.8824 37.5178 34.5162 38.2042 34.3036 39.0055C34.0968 39.8009 33.9935 40.6994 33.9935 41.701ZM75.3403 31.2106L67.1099 44.3612V52.1207H61.9803V44.3347L53.7499 31.2106H59.1542C59.2782 31.3933 59.5292 31.788 59.9072 32.3949C60.2852 33.0076 60.7193 33.7264 61.2095 34.5513C61.6998 35.382 62.2225 36.2629 62.7777 37.1938C63.3269 38.1188 63.8201 38.9908 64.2572 39.8097H64.833C65.2701 38.9908 65.7662 38.1188 66.3214 37.1938C66.8707 36.2629 67.3904 35.382 67.8807 34.5513C68.3709 33.7264 68.805 33.0076 69.183 32.3949C69.5669 31.788 69.8179 31.3933 69.9361 31.2106H75.3403ZM89.0014 41.4624H100.262C100.285 41.6215 100.303 41.7894 100.315 41.9661C100.321 42.1488 100.324 42.3197 100.324 42.4787C100.324 43.8928 100.114 45.2155 99.6947 46.4469C99.2754 47.6724 98.5903 48.7417 97.6394 49.655C96.6884 50.5623 95.4511 51.2752 93.9273 51.7937C92.4094 52.3122 90.5371 52.5714 88.3104 52.5714C86.3732 52.5714 84.6485 52.3682 83.1365 51.9616C81.6245 51.5492 80.3488 50.904 79.3093 50.0262C78.2639 49.1483 77.4724 48.0288 76.935 46.6678C76.3916 45.3127 76.1199 43.6866 76.1199 41.7894C76.1199 39.8922 76.3916 38.2602 76.935 36.8933C77.4724 35.5264 78.2639 34.3981 79.3093 33.5084C80.3488 32.6188 81.6245 31.9589 83.1365 31.5288C84.6485 31.0987 86.3732 30.8836 88.3104 30.8836C91.5943 30.8836 94.2639 31.4993 96.3193 32.7307C98.3688 33.9562 99.6741 35.9359 100.235 38.6697H94.6803C94.261 37.5326 93.564 36.6694 92.5895 36.0802C91.6209 35.491 90.1945 35.1964 88.3104 35.1964C87.0524 35.1964 85.9922 35.3526 85.1299 35.6648C84.2676 35.9712 83.5736 36.4102 83.048 36.9817C82.5164 37.5473 82.1354 38.2366 81.9051 39.0497C81.6747 39.8569 81.5596 40.7701 81.5596 41.7894C81.5596 42.8087 81.6747 43.7131 81.9051 44.5026C82.1354 45.2921 82.5164 45.9638 83.048 46.5176C83.5736 47.0773 84.2676 47.5015 85.1299 47.7902C85.9922 48.0848 87.0524 48.2321 88.3104 48.2321C90.2536 48.2321 91.8128 47.9169 92.9882 47.2865C94.1576 46.656 94.8516 45.6515 95.0702 44.2728H87.9826L89.0014 41.4624ZM119.247 52.1207L117.954 48.02H108.253L106.959 52.1207H101.529L108.767 31.2106H117.502L124.74 52.1207H119.247ZM113.595 33.7029H112.665C112.446 34.5572 112.192 35.4704 111.903 36.4426C111.614 37.4088 111.277 38.4929 110.893 39.6949L109.422 44.3081H116.811L115.34 39.6949C114.962 38.4929 114.632 37.4088 114.348 36.4426C114.071 35.4704 113.82 34.5572 113.595 33.7029ZM142.636 52.1207L141.343 48.02H131.651L130.357 52.1207H124.917L132.156 31.2106H140.891L148.129 52.1207H142.636ZM136.993 33.7029H136.063C135.838 34.5572 135.581 35.4704 135.292 36.4426C135.002 37.4088 134.669 38.4929 134.291 39.6949L132.82 44.3081H140.209L138.729 39.6949C138.351 38.4929 138.023 37.4088 137.746 36.4426C137.462 35.4704 137.211 34.5572 136.993 33.7029Z" fill="white"/>
</g>
<defs>
<clipPath id="clip0">
<rect width="148.129" height="80" fill="white"/>
</clipPath>
</defs>
</svg>
