<svg width="196" height="201" viewBox="0 0 196 201" fill="none" xmlns="http://www.w3.org/2000/svg">
<g style="mix-blend-mode:hard-light" filter="url(#filter0_f)">
<path fill-rule="evenodd" clip-rule="evenodd" d="M117.333 161C120.892 161 123.778 158.115 123.778 154.556C123.778 150.996 120.892 148.111 117.333 148.111C113.774 148.111 110.889 150.996 110.889 154.556C110.889 158.115 113.774 161 117.333 161ZM78.6666 161C82.2257 161 85.111 158.115 85.111 154.556C85.111 150.996 82.2257 148.111 78.6666 148.111C75.1074 148.111 72.2221 150.996 72.2221 154.556C72.2221 158.115 75.1074 161 78.6666 161ZM40 161C40 128.967 65.9674 103 97.9999 103C130.033 103 156 128.967 156 161H40ZM136.666 45C126.625 53.4288 99.9396 68.3161 117.333 102.999C133.119 93.8858 151.782 75.7372 136.666 45ZM59.3333 45.0006C54.8509 57.3212 46.2615 81.6603 78.6666 103C87.7803 87.2147 87.7919 64.0621 59.3333 45.0006Z" stroke="#90FF03" stroke-width="16"/>
</g>
<g style="mix-blend-mode:hard-light" filter="url(#filter1_ii)">
<path fill-rule="evenodd" clip-rule="evenodd" d="M117.333 161C120.892 161 123.778 158.115 123.778 154.556C123.778 150.996 120.892 148.111 117.333 148.111C113.774 148.111 110.889 150.996 110.889 154.556C110.889 158.115 113.774 161 117.333 161ZM78.6666 161C82.2257 161 85.111 158.115 85.111 154.556C85.111 150.996 82.2257 148.111 78.6666 148.111C75.1074 148.111 72.2221 150.996 72.2221 154.556C72.2221 158.115 75.1074 161 78.6666 161ZM40 161C40 128.967 65.9674 103 97.9999 103C130.033 103 156 128.967 156 161H40ZM136.666 45C126.625 53.4288 99.9396 68.3161 117.333 102.999C133.119 93.8858 151.782 75.7372 136.666 45ZM59.3333 45.0006C54.8509 57.3212 46.2615 81.6603 78.6666 103C87.7803 87.2147 87.7919 64.0621 59.3333 45.0006Z" stroke="#90FF03" stroke-opacity="0.24" stroke-width="16" stroke-linecap="round" stroke-linejoin="round"/>
</g>
<g style="mix-blend-mode:hard-light" filter="url(#filter2_ii)">
<path fill-rule="evenodd" clip-rule="evenodd" d="M117.333 161C120.892 161 123.778 158.115 123.778 154.556C123.778 150.996 120.892 148.111 117.333 148.111C113.774 148.111 110.889 150.996 110.889 154.556C110.889 158.115 113.774 161 117.333 161ZM78.6666 161C82.2257 161 85.111 158.115 85.111 154.556C85.111 150.996 82.2257 148.111 78.6666 148.111C75.1074 148.111 72.2221 150.996 72.2221 154.556C72.2221 158.115 75.1074 161 78.6666 161ZM40 161C40 128.967 65.9674 103 97.9999 103C130.033 103 156 128.967 156 161H40ZM136.666 45C126.625 53.4288 99.9396 68.3161 117.333 102.999C133.119 93.8858 151.782 75.7372 136.666 45ZM59.3333 45.0006C54.8509 57.3212 46.2615 81.6603 78.6666 103C87.7803 87.2147 87.7919 64.0621 59.3333 45.0006Z" stroke="#90FF03" stroke-opacity="0.24" stroke-width="16" stroke-linecap="round" stroke-linejoin="round"/>
</g>
<g filter="url(#filter3_f)">
<path fill-rule="evenodd" clip-rule="evenodd" d="M117.333 161C120.892 161 123.778 158.115 123.778 154.556C123.778 150.996 120.892 148.111 117.333 148.111C113.774 148.111 110.889 150.996 110.889 154.556C110.889 158.115 113.774 161 117.333 161ZM78.6666 161C82.2257 161 85.111 158.115 85.111 154.556C85.111 150.996 82.2257 148.111 78.6666 148.111C75.1074 148.111 72.2221 150.996 72.2221 154.556C72.2221 158.115 75.1074 161 78.6666 161ZM40 161C40 128.967 65.9674 103 97.9999 103C130.033 103 156 128.967 156 161H40ZM136.666 45C126.625 53.4288 99.9396 68.3161 117.333 102.999C133.119 93.8858 151.782 75.7372 136.666 45ZM59.3333 45.0006C54.8509 57.3212 46.2615 81.6603 78.6666 103C87.7803 87.2147 87.7919 64.0621 59.3333 45.0006Z" stroke="white" stroke-width="4"/>
</g>
<g filter="url(#filter4_f)">
<path fill-rule="evenodd" clip-rule="evenodd" d="M117.333 161C120.892 161 123.778 158.115 123.778 154.556C123.778 150.996 120.892 148.111 117.333 148.111C113.774 148.111 110.889 150.996 110.889 154.556C110.889 158.115 113.774 161 117.333 161ZM78.6666 161C82.2257 161 85.111 158.115 85.111 154.556C85.111 150.996 82.2257 148.111 78.6666 148.111C75.1074 148.111 72.2221 150.996 72.2221 154.556C72.2221 158.115 75.1074 161 78.6666 161ZM40 161C40 128.967 65.9674 103 97.9999 103C130.033 103 156 128.967 156 161H40ZM136.666 45C126.625 53.4288 99.9396 68.3161 117.333 102.999C133.119 93.8858 151.782 75.7372 136.666 45ZM59.3333 45.0006C54.8509 57.3212 46.2615 81.6603 78.6666 103C87.7803 87.2147 87.7919 64.0621 59.3333 45.0006Z" stroke="white" stroke-width="4"/>
</g>
<defs>
<filter id="filter0_f" x="0" y="0.310303" width="196" height="200.69" filterUnits="userSpaceOnUse" color-interpolation-filters="sRGB">
<feFlood flood-opacity="0" result="BackgroundImageFix"/>
<feBlend mode="normal" in="SourceGraphic" in2="BackgroundImageFix" result="shape"/>
<feGaussianBlur stdDeviation="16" result="effect1_foregroundBlur"/>
</filter>
<filter id="filter1_ii" x="30" y="34.9999" width="136" height="136" filterUnits="userSpaceOnUse" color-interpolation-filters="sRGB">
<feFlood flood-opacity="0" result="BackgroundImageFix"/>
<feBlend mode="normal" in="SourceGraphic" in2="BackgroundImageFix" result="shape"/>
<feColorMatrix in="SourceAlpha" type="matrix" values="0 0 0 0 0 0 0 0 0 0 0 0 0 0 0 0 0 0 127 0" result="hardAlpha"/>
<feOffset dx="2" dy="2"/>
<feGaussianBlur stdDeviation="1"/>
<feComposite in2="hardAlpha" operator="arithmetic" k2="-1" k3="1"/>
<feColorMatrix type="matrix" values="0 0 0 0 1 0 0 0 0 1 0 0 0 0 1 0 0 0 0.54 0"/>
<feBlend mode="normal" in2="shape" result="effect1_innerShadow"/>
<feColorMatrix in="SourceAlpha" type="matrix" values="0 0 0 0 0 0 0 0 0 0 0 0 0 0 0 0 0 0 127 0" result="hardAlpha"/>
<feOffset dx="-2" dy="-2"/>
<feGaussianBlur stdDeviation="1"/>
<feComposite in2="hardAlpha" operator="arithmetic" k2="-1" k3="1"/>
<feColorMatrix type="matrix" values="0 0 0 0 1 0 0 0 0 1 0 0 0 0 1 0 0 0 0.54 0"/>
<feBlend mode="normal" in2="effect1_innerShadow" result="effect2_innerShadow"/>
</filter>
<filter id="filter2_ii" x="30" y="34.9999" width="136" height="136" filterUnits="userSpaceOnUse" color-interpolation-filters="sRGB">
<feFlood flood-opacity="0" result="BackgroundImageFix"/>
<feBlend mode="normal" in="SourceGraphic" in2="BackgroundImageFix" result="shape"/>
<feColorMatrix in="SourceAlpha" type="matrix" values="0 0 0 0 0 0 0 0 0 0 0 0 0 0 0 0 0 0 127 0" result="hardAlpha"/>
<feOffset dx="2" dy="2"/>
<feGaussianBlur stdDeviation="1"/>
<feComposite in2="hardAlpha" operator="arithmetic" k2="-1" k3="1"/>
<feColorMatrix type="matrix" values="0 0 0 0 1 0 0 0 0 1 0 0 0 0 1 0 0 0 0.54 0"/>
<feBlend mode="normal" in2="shape" result="effect1_innerShadow"/>
<feColorMatrix in="SourceAlpha" type="matrix" values="0 0 0 0 0 0 0 0 0 0 0 0 0 0 0 0 0 0 127 0" result="hardAlpha"/>
<feOffset dx="-2" dy="-2"/>
<feGaussianBlur stdDeviation="1"/>
<feComposite in2="hardAlpha" operator="arithmetic" k2="-1" k3="1"/>
<feColorMatrix type="matrix" values="0 0 0 0 1 0 0 0 0 1 0 0 0 0 1 0 0 0 0.54 0"/>
<feBlend mode="normal" in2="effect1_innerShadow" result="effect2_innerShadow"/>
</filter>
<filter id="filter3_f" x="36" y="39.8275" width="124" height="125.172" filterUnits="userSpaceOnUse" color-interpolation-filters="sRGB">
<feFlood flood-opacity="0" result="BackgroundImageFix"/>
<feBlend mode="normal" in="SourceGraphic" in2="BackgroundImageFix" result="shape"/>
<feGaussianBlur stdDeviation="1" result="effect1_foregroundBlur"/>
</filter>
<filter id="filter4_f" x="36" y="39.8275" width="124" height="125.172" filterUnits="userSpaceOnUse" color-interpolation-filters="sRGB">
<feFlood flood-opacity="0" result="BackgroundImageFix"/>
<feBlend mode="normal" in="SourceGraphic" in2="BackgroundImageFix" result="shape"/>
<feGaussianBlur stdDeviation="1" result="effect1_foregroundBlur"/>
</filter>
</defs>
</svg>
