<svg width="1920" height="230" viewBox="0 0 1920 230" fill="none" xmlns="http://www.w3.org/2000/svg">
<path d="M1920 229.824H0V0C2.92438 3.1567 5.4993 6.61998 7.68 10.3296C8.8896 13.5744 10.2144 16.6656 11.6544 16.0896C13.1136 14.8224 14.6688 25.9776 16.32 21.12C18.816 23.04 20.4864 23.6544 22.4256 22.272C23.4048 21.7152 24.4416 20.352 25.7088 22.272C26.976 21.6192 28.4544 21.6768 30.336 26.4384C31.6032 30.0096 32.7552 32.9856 33.888 36.7488C35.136 37.4208 36.4608 31.8912 37.728 38.6688C40.2624 41.7984 42.7584 40.0704 45.5424 40.9536C47.0016 40.7232 48.3648 41.2608 49.7856 41.1264C51.2064 40.992 52.8 39.0528 54.4128 37.8048C55.68 36.7872 57.1392 33.4464 58.368 34.0992C59.712 32.7744 61.0176 34.9056 62.3616 33.792C63.5904 36.384 65.0112 34.08 66.4704 31.5264C67.784 29.7846 69.3203 28.2224 71.04 26.88C71.3856 27.0912 71.9424 24.96 72.4224 23.9616C72.9024 22.9632 73.7856 22.272 73.92 22.56C75.072 21.3312 75.5136 21.5424 76.3584 20.8896C77.28 19.6992 77.7984 20.1408 78.3936 20.4288C79.968 21.8304 80.3136 20.256 81.2928 20.1792C82.3843 20.5219 83.5366 20.6266 84.672 20.4864C85.728 20.8512 85.536 17.9328 87.3024 19.2192C88.8576 19.5264 90.0288 18.1056 91.488 18.0864C92.0448 17.1456 92.832 17.5104 93.696 18.336C94.56 19.1616 95.616 22.4832 96.1536 22.176C98.0736 26.4768 99.4176 27.3216 101.03 30.2784C101.453 25.7856 102.586 32.6016 103.603 38.2848C104.41 40.3392 105.312 46.272 106.003 43.6608C107.558 44.6208 108.902 36.5184 110.803 43.4304C111.648 43.6992 112.493 48.3072 113.357 50.5344C113.779 54.8352 114.202 54.528 114.643 53.184C115.408 55.5388 115.847 57.9871 115.949 60.4608C116.165 61.9175 116.612 63.3304 117.274 64.6464C117.715 67.6032 118.157 66.3936 118.598 69.4848C119.04 70.8864 119.482 72.8832 119.942 75.0336C120.271 77.3529 120.72 79.6536 121.286 81.9264C122.189 80.0064 123.091 86.1312 123.994 88.8576C124.896 91.584 125.914 93.984 126.739 93.888C130.579 88.032 134.419 93.5424 138.528 99.072C142.752 105.792 147.11 100.992 151.296 94.8096C154.369 95.9118 157.643 96.3375 160.896 96.0576C163.91 98.208 166.79 99.8976 169.402 101.357C170.65 102.662 171.878 101.914 173.088 102.086C174.298 102.259 175.43 101.146 176.621 101.395C177.235 99.7824 178.426 100.858 179.616 100.531C181.059 100.553 182.486 100.846 183.821 101.395C186.929 101.79 189.99 102.491 192.96 103.488C193.978 104.218 195.034 104.083 195.802 104.506C196.231 104.706 196.705 104.79 197.176 104.749C197.648 104.709 198.101 104.545 198.49 104.275C199.392 104.275 199.891 105.062 203.405 103.219C206.119 103.082 208.757 102.278 211.085 100.877C214.771 94.2336 217.594 95.904 220.896 94.8288C222.605 98.9568 224.525 102.509 226.656 101.76C229.037 99.9744 231.61 101.626 233.472 107.52C235.642 111.36 237.427 109.536 239.232 109.44C240.07 109.062 240.999 108.933 241.908 109.069C242.818 109.205 243.668 109.601 244.358 110.208C247.718 111.802 250.31 110.938 252.864 111.763C255.418 112.589 257.606 113.126 260.083 115.411C262.522 115.046 265.555 122.054 268.454 123.379C271.718 122.822 275.098 129.139 278.458 133.421C281.798 134.611 285.446 133.958 289.267 133.421C293.107 137.261 296.947 130.656 300.634 132.768C304.32 134.88 308.064 137.818 311.789 133.152C315.514 132.365 319.258 133.152 323.021 125.357C326.861 118.406 330.605 116.218 334.541 106.349C337.478 107.366 340.435 104.026 343.45 103.507C346.643 102.083 349.718 100.407 352.646 98.496C355.315 101.971 358.56 101.798 361.824 97.728C365.011 92.4672 368.448 90.6816 371.424 93.6192C374.861 88.3776 378.067 90.7392 381.331 90.2016C384.595 89.664 387.974 89.8752 392.486 81.2928C394.867 80.1984 397.075 80.7744 399.11 78.5088C401.03 75.5904 403.066 79.6416 404.87 81.8496C406.637 81.3696 408.096 86.112 409.21 90.5664C412.493 89.2224 415.469 91.1232 418.349 93.6C421.229 96.0768 423.974 99.36 426.758 106.061C428.947 120.058 431.846 120.902 434.918 121.248C437.99 120.806 441.254 119.558 444.173 124.742C447.686 123.84 451.027 133.862 454.406 132.134C456.042 133.066 457.866 133.619 459.743 133.752C461.621 133.885 463.504 133.594 465.254 132.902C469.248 135.187 473.146 131.827 477.139 130.176C481.21 130.656 485.203 130.022 488.794 135.168C494.17 133.901 498.758 138.835 503.578 136.416C506.537 135.227 509.433 133.888 512.256 132.403C513.658 131.496 515.223 130.87 516.864 130.56C517.786 130.81 519.686 128.64 520.166 129.638C521.414 128.371 522.221 129.274 523.258 128.64C524.623 127.732 526.249 127.301 527.885 127.411C531.091 126.451 531.821 124.781 535.066 123.36C538.042 124.397 538.714 121.766 540.71 121.939C542.707 122.112 544.819 120.25 547.277 123.571C549.197 120.691 551.117 122.784 552.845 122.63C554.377 121.827 556.125 121.531 557.837 121.786C559.565 121.901 561.043 120.48 563.059 122.093C564.749 122.093 566.477 122.093 568.205 122.093C570.002 122.047 571.766 121.601 573.37 120.787C576.922 118.867 580.013 120.134 583.142 120C584.352 121.133 585.619 120.653 586.982 120.806C588.395 120.969 589.785 121.284 591.13 121.747C594.298 123.84 595.699 121.747 599.366 124.474C602.419 124.474 605.126 123.072 610.138 123.36C614.134 121.36 617.502 118.297 619.872 114.509C622.752 113.376 626.726 116.102 630.202 116.755C633.446 118.157 636.883 121.958 640.09 123.398C641.702 124.435 643.296 125.472 644.909 124.685C646.694 120.384 648.134 125.837 649.728 124.57C651.418 122.131 652.819 126.125 654.336 125.222C655.017 125.545 655.761 125.713 656.515 125.713C657.269 125.713 658.013 125.545 658.694 125.222C661.912 127.655 665.63 129.341 669.581 130.157C673.421 129.331 677.376 133.363 681.254 131.194C685.229 134.688 689.126 134.054 692.774 136.166C695.213 142.253 697.747 147.974 700.454 150.662C705.677 156.019 711.226 153.946 716.813 152.582C721.018 151.642 725.242 145.574 729.37 154.656C733.536 158.765 737.741 158.784 742.022 158.65C746.304 160.378 750.682 161.626 755.155 163.91C760.243 161.376 764.102 168.211 768.595 171.187C770.366 170.415 772.312 170.135 774.229 170.379C776.145 170.622 777.96 171.379 779.482 172.57C783.014 174.01 786.893 174.298 791.232 177.197C795.648 181.517 799.814 182.515 803.366 181.728C807.206 181.728 809.933 182.208 812.966 180.883C816.096 182.803 820.55 181.555 822.893 182.362C826.022 180.442 828.25 181.766 830.899 180.691C832.056 179.736 833.475 179.153 834.969 179.02C836.463 178.886 837.963 179.208 839.27 179.942C842.131 181.094 845.03 179.942 848.045 180.634C850.234 179.789 852.326 178.944 854.131 182.88C856.051 183.187 857.971 184.301 859.891 183.782C861.694 183.888 863.502 183.888 865.306 183.782C867.034 183.629 868.723 183.379 870.394 183.168C873.83 180.845 876.922 182.112 880.378 182.342C882.624 181.92 884.832 181.555 886.464 182.688C888.902 181.517 891.245 180.576 892.877 181.478C894.818 179.846 897.018 178.548 899.386 177.638C901.421 177.638 903.648 174.547 905.914 176.198C907.334 176.198 908.794 174.278 910.234 173.261C911.652 172.332 913.127 171.492 914.65 170.746C917.645 167.405 920.678 171.648 923.731 174.182C926.765 181.248 929.818 181.862 932.87 183.59C934.349 188.237 935.846 181.805 937.325 186.01C938.803 185.28 940.282 190.637 941.76 190.368C942.839 192.565 944.347 194.523 946.195 196.128C947.578 196.95 949.03 197.65 950.534 198.221C953.261 197.722 955.872 200.813 958.483 196.57C961.152 195.053 963.994 203.712 966.797 203.77C969.754 206.554 972.557 212.506 975.36 215.578C975.787 218.52 976.771 221.355 978.259 223.93C980.006 222.432 980.602 227.77 982.598 225.197C984.518 229.882 987.398 227.693 989.952 228.307C992.467 226.675 994.33 228.998 996.902 222.24C998.822 220.512 1000.38 221.53 1002.09 220.32C1002.83 221.038 1003.82 221.439 1004.85 221.439C1005.88 221.439 1006.87 221.038 1007.62 220.32C1009.67 221.971 1011.67 223.354 1013.38 220.32C1015.3 221.837 1017.08 218.4 1018.94 217.766C1020.86 216.71 1022.61 217.094 1024.59 215.52C1026.51 215.251 1028.43 216.787 1030.52 218.285C1032.81 217.171 1035.13 216 1037.36 219.322C1039.58 220.028 1041.87 220.511 1044.19 220.762C1046.27 219.859 1048.22 217.632 1049.95 218.419C1051.64 217.018 1053.29 216.499 1054.69 217.478C1056.48 214.694 1057.08 217.478 1059.03 215.443C1060.95 214.042 1061.61 216.518 1063.6 215.443C1065.6 214.368 1067.44 212.87 1069 214.099C1070.75 214.272 1072.4 212.294 1074.22 213.83C1075.86 213.925 1077.5 213.717 1079.06 213.216C1080.84 213.83 1081.25 209.779 1083.07 209.875C1084.99 208.915 1086.49 207.456 1088.83 207.955C1091.48 209.875 1094.59 211.238 1095.03 210.067C1101.89 210.778 1097.93 208.262 1102.62 208.358C1104.94 205.651 1106.59 202.234 1108.55 200.294C1110.68 200.294 1112.74 196.454 1114.31 196.301C1116.23 196.819 1118.65 194.995 1120.59 195.283C1122.7 194.515 1124.89 192.922 1126.96 193.363C1129.17 192.422 1131.32 193.978 1133.36 192.96C1134.36 194.016 1135.28 191.174 1136.26 192.326C1137.18 190.656 1138.18 192.096 1139.35 196.166C1141.38 198.278 1144.13 202.944 1145.47 201.926C1147.79 202.384 1149.9 203.575 1151.48 205.325C1152.92 204.384 1154.82 205.094 1156.9 206.899C1158.7 204.979 1161.43 199.603 1163.16 205.229C1165.59 203.309 1167.51 205.843 1170.45 194.4C1172.37 194.15 1174.29 186.144 1176.21 182.707C1178.13 179.77 1179.76 185.03 1181.64 181.843C1183.43 181.325 1185.14 179.578 1187.4 182.323C1189.32 181.19 1191.38 180.058 1193.76 182.227C1194.99 182.028 1196.24 182.204 1197.37 182.732C1198.49 183.26 1199.43 184.114 1200.06 185.184C1201.8 184.934 1204.07 189.581 1206.01 191.424C1208.91 201.274 1210 195.475 1211.9 196.57C1213.32 193.766 1215.03 193.133 1217.2 196.57C1218.85 195.763 1221.04 198.893 1222.44 196.858C1224.36 198.048 1225.92 197.28 1227.86 199.411C1229.13 194.458 1231.7 203.251 1233.22 201.792C1234.67 203.307 1236.49 204.424 1238.5 205.037C1240.28 207.091 1241.93 207.494 1243.43 205.037C1244.95 202.291 1246.56 202.541 1248.08 201.062C1249.61 200.87 1251.19 195.302 1252.84 197.011C1254.46 196.173 1256.2 195.578 1258 195.245C1259.73 195.245 1261.4 196.205 1263.24 194.611C1264.63 196.109 1265.91 197.798 1267.91 194.266C1269.24 194.995 1270.87 194.016 1272.25 193.766C1272.81 194.035 1273.8 193.075 1274.17 193.958C1274.38 195.514 1275.72 193.248 1276.95 191.923C1279.35 190.291 1279.87 191.386 1281.95 190.176C1283.65 189.542 1284.75 189.946 1287.09 188.141C1289.51 185.222 1290.49 186.221 1291.7 186.221C1292.58 188.141 1294.58 184.858 1296.02 183.782C1296.98 180.25 1298.71 181.248 1300.11 181.555C1301.43 181.018 1302.74 181.805 1303.55 177.408C1304.12 175.488 1303.55 172.301 1305.22 170.995C1307.14 166.867 1309.38 164.198 1311.15 165.235C1313.07 162.662 1314.41 163.834 1316.24 158.534C1317.39 159.264 1318.66 158.534 1320.08 155.846C1322.44 155.405 1324.7 154.925 1326.95 154.733C1328.75 155.113 1330.62 155.08 1332.4 154.637C1334.46 154.654 1336.49 154.194 1338.34 153.293C1341.1 143.386 1344.33 149.952 1347.67 151.814C1351.01 150.566 1354.48 159.648 1357.77 161.414C1361.05 163.181 1364.1 161.126 1366.66 150.893C1368.29 148.493 1369.94 153.638 1371.55 150.547C1373.18 153.293 1374.68 144.154 1376.33 149.357C1377.91 148.723 1379.52 150.643 1381.06 148.435C1382.59 146.227 1384.2 146.515 1385.88 148.666C1387.45 146.189 1389.14 147.552 1390.94 151.008C1392.71 152.41 1394.61 155.27 1396.45 156.326C1397.99 153.101 1399.78 153.907 1401.73 156.768C1403.56 157.651 1405.48 159.514 1407.19 157.805C1408.93 156.71 1410.66 154.906 1412.45 156.442C1414.14 155.904 1415.6 160.166 1417.31 154.637C1418.92 152.582 1420.09 154.925 1421.88 151.661C1423.66 148.397 1426.04 146.534 1426.98 149.299C1429.08 148.55 1430.38 151.219 1432.36 152.582C1435.43 148.742 1435.2 163.718 1438.12 161.242C1439.64 166.464 1442.21 163.315 1443.67 167.558C1445.59 166.33 1447.51 165.062 1448.89 169.92C1450.27 174.778 1452.33 172.838 1454.13 170.035C1455.88 168.23 1457.61 166.195 1459.33 167.789C1461.37 170.554 1463.39 169.862 1465.4 170.918C1466.26 171.548 1467.27 171.93 1468.32 172.021C1469.38 172.113 1470.44 171.91 1471.39 171.437C1475.35 173.126 1479.24 170.342 1483.1 171.437C1486.94 169.018 1490.78 168.73 1494.47 167.251C1498.48 164.833 1502.12 161.852 1505.28 158.4C1509.33 154.015 1512.93 149.228 1516.01 144.115C1525.19 148.838 1533.14 127.872 1542.55 135.994C1552.38 138.95 1560.38 132.73 1567.64 128.314C1584.6 137.261 1584 122.88 1595.52 125.434C1599.93 126.402 1604.46 126.725 1608.96 126.394C1613.26 127.738 1616.77 125.299 1620.48 123.456C1624.05 125.376 1626.47 121.21 1630.69 126.662C1634 127.2 1637.34 128.582 1640.45 128.448C1643.33 125.626 1646.5 127.738 1649.4 128.352C1651.64 131.578 1653.77 132.077 1655.52 126.144C1657.44 124.608 1658.86 118.291 1661.11 120.518C1662.22 110.093 1664.79 115.603 1666.35 108.806C1667.04 102.355 1667.94 98.976 1669 99.936C1670.02 99.1872 1670.92 97.7088 1672.05 97.8624C1673.26 92.5824 1674.16 97.4592 1675.26 96.8832C1676.33 98.1696 1677.87 94.5024 1678.58 98.1312C1680.94 97.9008 1682.99 99.7824 1685.11 100.915C1687.33 100.685 1689.31 101.491 1691.39 101.242C1693.06 103.795 1695.23 102.067 1697.15 102.048C1699.07 101.587 1700.83 103.142 1702.69 103.488C1704.61 103.258 1706.38 105.408 1708.34 102.912C1709.07 103.592 1710 104.027 1710.99 104.158C1711.98 104.289 1712.99 104.108 1713.87 103.642C1714.71 104.071 1715.64 104.309 1716.59 104.339C1717.53 104.369 1718.47 104.19 1719.34 103.814C1722.87 103.814 1726.33 106.157 1729.75 109.766C1733.28 112.927 1736.61 116.306 1739.71 119.885C1746.14 108.077 1752.19 132.614 1759.28 130.214C1761.98 147.034 1768.19 145.056 1774.39 144.058C1777.48 143.558 1780.51 143.29 1782.39 145.325C1787.85 142.637 1789.5 147.936 1793.11 148.512C1795.03 152.928 1797.24 157.747 1801.19 157.536C1803.99 164.621 1808.03 163.872 1811.79 164.448C1813.71 162.739 1815.51 163.507 1817.26 164.928C1818.95 167.386 1820.66 167.712 1822.29 169.037C1823.62 173.606 1825.27 173.472 1826.78 174.547C1828.3 175.622 1829.43 178.502 1831.35 176.659C1832.03 181.824 1834.64 176.429 1836.19 176.659C1837.75 176.89 1839.09 178.829 1841.2 174.374C1845.6 169.248 1849.61 168.077 1853.36 173.165C1855.24 173.665 1857.17 173.973 1859.12 174.086C1861.04 172.973 1862.84 175.142 1864.67 173.587C1866.45 178.81 1868.29 172.147 1870 173.818C1871.32 172.279 1873.13 171.253 1875.13 170.918C1877.59 170.669 1879.91 171.494 1882.2 168.998C1884.36 172.186 1886.5 171.149 1888.59 165.811C1890.51 165.696 1892.43 162.394 1894.35 162.355C1896.15 162.682 1897.88 159.072 1899.51 161.702C1901.16 161.069 1902.7 162.835 1904.18 162.01C1905.64 161.856 1907.02 161.645 1908.29 164.659C1912.13 163.872 1915.01 169.651 1916.97 170.054C1918.89 171.974 1919.9 173.222 1919.9 172.166V229.766L1920 229.824Z" fill="#0A0A0A"/>
</svg>
